<svg width="599" height="338" viewBox="0 0 599 338" fill="none" xmlns="http://www.w3.org/2000/svg">
<mask id="mask0_2634_8108" style="mask-type:alpha" maskUnits="userSpaceOnUse" x="0" y="0" width="596" height="336">
<rect width="596" height="336" fill="url(#paint0_linear_2634_8108)"/>
</mask>
<g mask="url(#mask0_2634_8108)">
<g opacity="0.3">
<path d="M590.027 57.2241H588.664V152.159H590.027V57.2241Z" fill="#F6780F"/>
<path opacity="0.3" d="M573.91 80.394H572.547V162.466H573.91V80.394Z" fill="#F6780F"/>
<path opacity="0.3" d="M557.793 132.707H556.43V240.952H557.793V132.707Z" fill="#F6780F"/>
<path opacity="0.3" d="M541.676 145.37H540.312V223.445H541.676V145.37Z" fill="#F6780F"/>
<path opacity="0.3" d="M525.558 61.2842H524.195V250.267H525.558V61.2842Z" fill="#F6780F"/>
<path d="M509.441 54.354H508.078V188.773H509.441V54.354Z" fill="#F6780F"/>
<path d="M493.332 75.4673H491.969V126.926H493.332V75.4673Z" fill="#F6780F"/>
<path d="M477.215 57.4668H475.852V129.332H477.215V57.4668Z" fill="#F6780F"/>
<path d="M461.097 47.4185H459.734V148.12H461.097V47.4185Z" fill="#F6780F"/>
<path opacity="0.3" d="M444.98 98.4268H443.617V162.309H444.98V98.4268Z" fill="#F6780F"/>
<path opacity="0.3" d="M428.863 67.2114H427.5V179.005H428.863V67.2114Z" fill="#F6780F"/>
<path opacity="0.3" d="M412.746 101.433H411.383V134.705H412.746V101.433Z" fill="#F6780F"/>
<path d="M396.629 79.0791H395.266V124.992H396.629V79.0791Z" fill="#F6780F"/>
<path d="M380.512 49.1655H379.148V140.995H380.512V49.1655Z" fill="#F6780F"/>
<path d="M364.394 36.1587H363.031V121.333H364.394V36.1587Z" fill="#F6780F"/>
<path d="M348.285 42.0059H346.922V140.491H348.285V42.0059Z" fill="#F6780F"/>
<path d="M332.168 11.8818H330.805V134.321H332.168V11.8818Z" fill="#F6780F"/>
<path d="M316.051 34.5103H314.688V135.988H316.051V34.5103Z" fill="#F6780F"/>
<path d="M299.933 86.6924H298.57V142.59H299.933V86.6924Z" fill="#F6780F"/>
<path d="M283.824 59.6997H282.461V141.55H283.824V59.6997Z" fill="#F6780F"/>
<path d="M267.707 46.4019H266.344V190.136H267.707V46.4019Z" fill="#F6780F"/>
<path opacity="0.3" d="M251.59 40.5947H250.227V258.857H251.59V40.5947Z" fill="#F6780F"/>
<path opacity="0.3" d="M235.473 70.0762H234.109V376.174H235.473V70.0762Z" fill="#F6780F"/>
<path opacity="0.3" d="M219.355 203.444H217.992V325.884H219.355V203.444Z" fill="#F6780F"/>
<path opacity="0.3" d="M203.238 171.826H201.875V315.56H203.238V171.826Z" fill="#F6780F"/>
<path opacity="0.3" d="M187.121 147.368H185.758V279.125H187.121V147.368Z" fill="#F6780F"/>
<path opacity="0.3" d="M171.004 150.049H169.641V293.783H171.004V150.049Z" fill="#F6780F"/>
<path opacity="0.3" d="M154.887 147.133H153.523V210.127H154.887V147.133Z" fill="#F6780F"/>
<path opacity="0.3" d="M138.777 129.906H137.414V264.323H138.777V129.906Z" fill="#F6780F"/>
<path opacity="0.3" d="M122.66 198.221H121.297V258.11H122.66V198.221Z" fill="#F6780F"/>
<path opacity="0.3" d="M106.543 188.885H105.18V303.34H106.543V188.885Z" fill="#F6780F"/>
<path opacity="0.3" d="M90.4256 180.296H89.0625V350.646H90.4256V180.296Z" fill="#F6780F"/>
<path opacity="0.3" d="M74.3084 241.246H72.9453V351.265H74.3084V241.246Z" fill="#F6780F"/>
<path opacity="0.3" d="M58.1913 286.335H56.8281V327.148H58.1913V286.335Z" fill="#F6780F"/>
<path opacity="0.3" d="M42.0741 178.119H40.7109V423H42.0741V178.119Z" fill="#F6780F"/>
<path opacity="0.3" d="M25.9568 241.918H24.5938V325.321H25.9568V241.918Z" fill="#F6780F"/>
<path d="M9.83966 221.458H8.47656V388.261H9.83966V221.458Z" fill="#F6780F"/>
<path d="M596.162 90.3071H582.531V119.076H596.162V90.3071Z" fill="#F6780F"/>
<path opacity="0.3" d="M580.045 108.993H566.414V133.862H580.045V108.993Z" fill="#F6780F"/>
<path opacity="0.3" d="M563.928 170.428H550.297V203.231H563.928V170.428Z" fill="#F6780F"/>
<path opacity="0.3" d="M547.811 172.581H534.18V196.242H547.811V172.581Z" fill="#F6780F"/>
<path opacity="0.3" d="M531.701 127.143H518.07V184.412H531.701V127.143Z" fill="#F6780F"/>
<path d="M515.584 101.196H501.953V141.929H515.584V101.196Z" fill="#F6780F"/>
<path d="M499.467 93.4014H485.836V108.996H499.467V93.4014Z" fill="#F6780F"/>
<path d="M483.35 82.5098H469.719V104.287H483.35V82.5098Z" fill="#F6780F"/>
<path d="M467.233 82.5098H453.602V113.026H467.233V82.5098Z" fill="#F6780F"/>
<path opacity="0.3" d="M451.115 120.69H437.484V140.048H451.115V120.69Z" fill="#F6780F"/>
<path opacity="0.3" d="M434.998 106.17H421.367V140.048H434.998V106.17Z" fill="#F6780F"/>
<path opacity="0.3" d="M418.881 113.026H405.25V123.11H418.881V113.026Z" fill="#F6780F"/>
<path d="M402.764 95.0791H389.133V108.993H402.764V95.0791Z" fill="#F6780F"/>
<path d="M386.654 81.168H373.023V108.996H386.654V81.168Z" fill="#F6780F"/>
<path d="M370.537 65.8403H356.906V91.6513H370.537V65.8403Z" fill="#F6780F"/>
<path d="M354.42 76.3267H340.789V106.171H354.42V76.3267Z" fill="#F6780F"/>
<path d="M338.303 54.5488H324.672V91.6514H338.303V54.5488Z" fill="#F6780F"/>
<path d="M322.193 69.8735H308.562V100.625H322.193V69.8735Z" fill="#F6780F"/>
<path d="M306.076 106.17H292.445V123.109H306.076V106.17Z" fill="#F6780F"/>
<path d="M289.959 88.2236H276.328V113.026H289.959V88.2236Z" fill="#F6780F"/>
<path d="M273.842 96.4932H260.211V140.048H273.842V96.4932Z" fill="#F6780F"/>
<path opacity="0.3" d="M257.725 116.657H244.094V182.795H257.725V116.657Z" fill="#F6780F"/>
<path opacity="0.3" d="M241.608 176.748H227.977V269.505H241.608V176.748Z" fill="#F6780F"/>
<path opacity="0.3" d="M225.49 246.114H211.859V283.216H225.49V246.114Z" fill="#F6780F"/>
<path opacity="0.3" d="M209.373 221.917H195.742V265.472H209.373V221.917Z" fill="#F6780F"/>
<path opacity="0.3" d="M193.256 193.281H179.625V233.209H193.256V193.281Z" fill="#F6780F"/>
<path opacity="0.3" d="M177.147 200.139H163.516V243.694H177.147V200.139Z" fill="#F6780F"/>
<path opacity="0.3" d="M161.029 169.084H147.398V188.173H161.029V169.084Z" fill="#F6780F"/>
<path opacity="0.3" d="M144.912 176.748H131.281V217.481H144.912V176.748Z" fill="#F6780F"/>
<path opacity="0.3" d="M128.795 219.092H115.164V237.239H128.795V219.092Z" fill="#F6780F"/>
<path opacity="0.3" d="M112.678 228.772H99.0469V263.456H112.678V228.772Z" fill="#F6780F"/>
<path opacity="0.3" d="M96.5607 239.661H82.9297V291.283H96.5607V239.661Z" fill="#F6780F"/>
<path opacity="0.3" d="M80.4435 279.586H66.8125V312.925H80.4435V279.586Z" fill="#F6780F"/>
<path d="M64.3264 300.558H50.6953V312.927H64.3264V300.558Z" fill="#F6780F"/>
<path opacity="0.3" d="M48.2092 263.456H34.5781V337.661H48.2092V263.456Z" fill="#F6780F"/>
<path opacity="0.3" d="M32.0998 270.983H18.4688V296.255H32.0998V270.983Z" fill="#F6780F"/>
<path d="M15.9826 279.586H2.35156V330.133H15.9826V279.586Z" fill="#F6780F"/>
</g>
</g>
<defs>
<linearGradient id="paint0_linear_2634_8108" x1="-4.08592e-06" y1="255.5" x2="596" y2="255.5" gradientUnits="userSpaceOnUse">
<stop stop-color="#D9D9D9" stop-opacity="0"/>
<stop offset="0.268338" stop-color="#CBCBCB"/>
<stop offset="0.81859" stop-color="#808080"/>
<stop offset="1" stop-color="#737373" stop-opacity="0"/>
</linearGradient>
</defs>
</svg>
