<svg width="1699" height="1055" viewBox="0 0 1699 1055" fill="none" xmlns="http://www.w3.org/2000/svg">
<g opacity="0.2">
<g opacity="0.2">
<path d="M596.609 312.636H660.473L650.755 307.159H606.328L596.609 312.636Z" fill="#C4C4C4"/>
<path d="M596.609 312.636H660.473L650.755 307.159H606.328L596.609 312.636Z" fill="#FFA800"/>
<path d="M596.609 312.636H660.473L650.755 307.159H606.328L596.609 312.636Z" fill="#FF0000"/>
<path d="M596.609 312.636H660.473L650.755 307.159H606.328L596.609 312.636Z" fill="#FFB800"/>
<path d="M627.151 253.763L595.219 308.306L604.887 302.744L627.101 264.801L627.151 253.763Z" fill="#C4C4C4"/>
<path d="M627.151 253.763L595.219 308.306L604.887 302.744L627.101 264.801L627.151 253.763Z" fill="#FFA800"/>
<path d="M627.151 253.763L595.219 308.306L604.887 302.744L627.101 264.801L627.151 253.763Z" fill="#FF0000"/>
<path d="M627.151 253.763L595.219 308.306L604.887 302.744L627.101 264.801L627.151 253.763Z" fill="#FFB800"/>
<path d="M630.57 253.764L662.502 308.306L652.834 302.744L630.62 264.802L630.57 253.764Z" fill="#C4C4C4"/>
<path d="M630.57 253.764L662.502 308.306L652.834 302.744L630.62 264.802L630.57 253.764Z" fill="#FFB800"/>
</g>
<g opacity="0.2">
<path d="M597.539 185.754H661.403L651.685 180.278H607.257L597.539 185.754Z" fill="#C4C4C4"/>
<path d="M597.539 185.754H661.403L651.685 180.278H607.257L597.539 185.754Z" fill="#FFA800"/>
<path d="M597.539 185.754H661.403L651.685 180.278H607.257L597.539 185.754Z" fill="#FF0000"/>
<path d="M597.539 185.754H661.403L651.685 180.278H607.257L597.539 185.754Z" fill="#FFB800"/>
<path d="M628.08 126.882L596.148 181.424L605.817 175.862L628.031 137.92L628.08 126.882Z" fill="#C4C4C4"/>
<path d="M628.08 126.882L596.148 181.424L605.817 175.862L628.031 137.92L628.08 126.882Z" fill="#FFA800"/>
<path d="M628.08 126.882L596.148 181.424L605.817 175.862L628.031 137.92L628.08 126.882Z" fill="#FF0000"/>
<path d="M628.08 126.882L596.148 181.424L605.817 175.862L628.031 137.92L628.08 126.882Z" fill="#FFB800"/>
<path d="M631.5 126.882L663.432 181.424L653.763 175.862L631.55 137.92L631.5 126.882Z" fill="#C4C4C4"/>
<path d="M631.5 126.882L663.432 181.424L653.763 175.862L631.55 137.92L631.5 126.882Z" fill="#FFB800"/>
</g>
<g opacity="0.2">
<path d="M597.539 58.8725H661.403L651.685 53.396H607.257L597.539 58.8725Z" fill="#C4C4C4"/>
<path d="M597.539 58.8725H661.403L651.685 53.396H607.257L597.539 58.8725Z" fill="#FFA800"/>
<path d="M597.539 58.8725H661.403L651.685 53.396H607.257L597.539 58.8725Z" fill="#FF0000"/>
<path d="M597.539 58.8725H661.403L651.685 53.396H607.257L597.539 58.8725Z" fill="#FFB800"/>
<path d="M628.08 0L596.148 54.5423L605.817 48.9806L628.031 11.0382L628.08 0Z" fill="#C4C4C4"/>
<path d="M628.08 0L596.148 54.5423L605.817 48.9806L628.031 11.0382L628.08 0Z" fill="#FFA800"/>
<path d="M628.08 0L596.148 54.5423L605.817 48.9806L628.031 11.0382L628.08 0Z" fill="#FF0000"/>
<path d="M628.08 0L596.148 54.5423L605.817 48.9806L628.031 11.0382L628.08 0Z" fill="#FFB800"/>
<path d="M631.5 0L663.432 54.5423L653.763 48.9806L631.55 11.0382L631.5 0Z" fill="#C4C4C4"/>
<path d="M631.5 0L663.432 54.5423L653.763 48.9806L631.55 11.0382L631.5 0Z" fill="#FFB800"/>
</g>
<g opacity="0.2">
<path d="M1089.32 290L1066.51 312.844V381.885L1115.17 430.619V643.325L1066 692.568V1012.39L1106.55 1053H1537.94L1652 938.779V879.891L1370.66 598.144V310.306L1350.38 290H1089.32Z" fill="#D9D9D9"/>
<path d="M1089.32 290L1066.51 312.844V381.885L1115.17 430.619V643.325L1066 692.568V1012.39L1106.55 1053H1537.94L1652 938.779V879.891L1370.66 598.144V310.306L1350.38 290H1089.32Z" fill="url(#paint0_linear_2634_7530)"/>
<path d="M1089.32 290L1066.51 312.844V381.885L1115.17 430.619V643.325L1066 692.568V1012.39L1106.55 1053H1537.94L1652 938.779V879.891L1370.66 598.144V310.306L1350.38 290H1089.32Z" stroke="black"/>
</g>
<g opacity="0.2">
<path d="M1133.32 94L1110.51 116.844V185.885L1159.17 234.619V447.325L1110 496.568V816.388L1150.55 857H1581.94L1696 742.779V683.891L1414.66 402.144V114.306L1394.38 94H1133.32Z" stroke="white" stroke-width="5"/>
<path d="M1133.32 94L1110.51 116.844V185.885L1159.17 234.619V447.325L1110 496.568V816.388L1150.55 857H1581.94L1696 742.779V683.891L1414.66 402.144V114.306L1394.38 94H1133.32Z" stroke="url(#paint1_linear_2634_7530)" stroke-width="5"/>
</g>
<g opacity="0.2">
<path d="M268 986.494V1025.58L300.473 1054H892.601L920 1026.59V943.351L661.737 685H569.391L268 986.494Z" fill="#D9D9D9"/>
<path d="M268 986.494V1025.58L300.473 1054H892.601L920 1026.59V943.351L661.737 685H569.391L268 986.494Z" fill="url(#paint2_linear_2634_7530)"/>
<path d="M268 986.494V1025.58L300.473 1054H892.601L920 1026.59V943.351L661.737 685H569.391L268 986.494Z" stroke="black"/>
</g>
<g opacity="0.2">
<path d="M311 789.494V828.576L343.473 857H935.601L963 829.591V746.351L704.737 488H612.391L311 789.494Z" stroke="white" stroke-width="5"/>
<path d="M311 789.494V828.576L343.473 857H935.601L963 829.591V746.351L704.737 488H612.391L311 789.494Z" stroke="url(#paint3_linear_2634_7530)" stroke-width="5"/>
</g>
<g opacity="0.2">
<path d="M379.68 286L349.223 316.477V403.338L1 751.797V1007.3L45.67 1052H148.208L544.147 655.793H682.726L855.315 828.499H975.112L1001 802.593V708.113L869.528 576.552V350.003L805.061 286H379.68Z" fill="#D9D9D9"/>
<path d="M379.68 286L349.223 316.477V403.338L1 751.797V1007.3L45.67 1052H148.208L544.147 655.793H682.726L855.315 828.499H975.112L1001 802.593V708.113L869.528 576.552V350.003L805.061 286H379.68Z" fill="url(#paint4_linear_2634_7530)"/>
<path d="M379.68 286L349.223 316.477V403.338L1 751.797V1007.3L45.67 1052H148.208L544.147 655.793H682.726L855.315 828.499H975.112L1001 802.593V708.113L869.528 576.552V350.003L805.061 286H379.68Z" stroke="black"/>
</g>
<g opacity="0.2">
<path d="M425.68 85L395.223 115.477V202.338L47 550.797V806.3L91.67 851H194.208L590.147 454.793H728.726L901.315 627.499H1021.11L1047 601.593V507.113L915.528 375.552V149.003L851.061 85H425.68Z" stroke="white" stroke-width="5"/>
<path d="M425.68 85L395.223 115.477V202.338L47 550.797V806.3L91.67 851H194.208L590.147 454.793H728.726L901.315 627.499H1021.11L1047 601.593V507.113L915.528 375.552V149.003L851.061 85H425.68Z" stroke="url(#paint5_linear_2634_7530)" stroke-width="5"/>
</g>
<g opacity="0.2">
<path d="M1450.9 290L1427 313.869L1428.02 563.222L1608.02 743H1651.24L1667 721.163V578.457L1540.9 452.511V304.22L1519.54 290H1450.9Z" fill="#D9D9D9"/>
<path d="M1450.9 290L1427 313.869L1428.02 563.222L1608.02 743H1651.24L1667 721.163V578.457L1540.9 452.511V304.22L1519.54 290H1450.9Z" fill="url(#paint6_linear_2634_7530)"/>
<path d="M1450.9 290L1427 313.869L1428.02 563.222L1608.02 743H1651.24L1667 721.163V578.457L1540.9 452.511V304.22L1519.54 290H1450.9Z" stroke="black"/>
</g>
</g>
<defs>
<linearGradient id="paint0_linear_2634_7530" x1="1358.57" y1="290" x2="857.429" y2="874.032" gradientUnits="userSpaceOnUse">
<stop stop-color="#FFC400"/>
<stop offset="1" stop-color="#FF3300"/>
</linearGradient>
<linearGradient id="paint1_linear_2634_7530" x1="1402.57" y1="94" x2="901.429" y2="678.032" gradientUnits="userSpaceOnUse">
<stop stop-color="#FFC400"/>
<stop offset="1" stop-color="#FF3300"/>
</linearGradient>
<linearGradient id="paint2_linear_2634_7530" x1="593.52" y1="685" x2="432.949" y2="1115.52" gradientUnits="userSpaceOnUse">
<stop stop-color="#FFC400"/>
<stop offset="1" stop-color="#FF3300"/>
</linearGradient>
<linearGradient id="paint3_linear_2634_7530" x1="636.52" y1="488" x2="475.949" y2="918.521" gradientUnits="userSpaceOnUse">
<stop stop-color="#FFC400"/>
<stop offset="1" stop-color="#FF3300"/>
</linearGradient>
<linearGradient id="paint4_linear_2634_7530" x1="500.264" y1="286" x2="90.7201" y2="1097.29" gradientUnits="userSpaceOnUse">
<stop stop-color="#FFC400"/>
<stop offset="1" stop-color="#FF3300"/>
</linearGradient>
<linearGradient id="paint5_linear_2634_7530" x1="546.264" y1="85" x2="136.72" y2="896.291" gradientUnits="userSpaceOnUse">
<stop stop-color="#FFC400"/>
<stop offset="1" stop-color="#FF3300"/>
</linearGradient>
<linearGradient id="paint6_linear_2634_7530" x1="1546.82" y1="290" x2="1252.83" y2="526.351" gradientUnits="userSpaceOnUse">
<stop stop-color="#FFC400"/>
<stop offset="1" stop-color="#FF3300"/>
</linearGradient>
</defs>
</svg>
