<svg width="376" height="606" viewBox="0 0 376 606" fill="none" xmlns="http://www.w3.org/2000/svg">
<g opacity="0.2">
<g opacity="0.2">
<path d="M264.762 212.91L264.762 235.632L266.711 232.174L266.711 216.367L264.762 212.91Z" fill="#C4C4C4"/>
<path d="M264.762 212.91L264.762 235.632L266.711 232.174L266.711 216.367L264.762 212.91Z" fill="#FFA800"/>
<path d="M264.762 212.91L264.762 235.632L266.711 232.174L266.711 216.367L264.762 212.91Z" fill="#FF0000"/>
<path d="M264.762 212.91L264.762 235.632L266.711 232.174L266.711 216.367L264.762 212.91Z" fill="#FFB800"/>
<path d="M285.711 223.777L266.305 212.416L268.284 215.855L281.784 223.759L285.711 223.777Z" fill="#C4C4C4"/>
<path d="M285.711 223.777L266.305 212.416L268.284 215.855L281.784 223.759L285.711 223.777Z" fill="#FFA800"/>
<path d="M285.711 223.777L266.305 212.416L268.284 215.855L281.784 223.759L285.711 223.777Z" fill="#FF0000"/>
<path d="M285.711 223.777L266.305 212.416L268.284 215.855L281.784 223.759L285.711 223.777Z" fill="#FFB800"/>
<path d="M285.711 224.994L266.305 236.355L268.284 232.915L281.784 225.012L285.711 224.994Z" fill="#C4C4C4"/>
<path d="M285.711 224.994L266.305 236.355L268.284 232.915L281.784 225.012L285.711 224.994Z" fill="#FFB800"/>
</g>
<g opacity="0.2">
<path d="M309.911 213.241L309.911 235.963L311.859 232.505L311.859 216.698L309.911 213.241Z" fill="#C4C4C4"/>
<path d="M309.911 213.241L309.911 235.963L311.859 232.505L311.859 216.698L309.911 213.241Z" fill="#FFA800"/>
<path d="M309.911 213.241L309.911 235.963L311.859 232.505L311.859 216.698L309.911 213.241Z" fill="#FF0000"/>
<path d="M309.911 213.241L309.911 235.963L311.859 232.505L311.859 216.698L309.911 213.241Z" fill="#FFB800"/>
<path d="M330.859 224.108L311.454 212.747L313.433 216.187L326.932 224.09L330.859 224.108Z" fill="#C4C4C4"/>
<path d="M330.859 224.108L311.454 212.747L313.433 216.187L326.932 224.09L330.859 224.108Z" fill="#FFA800"/>
<path d="M330.859 224.108L311.454 212.747L313.433 216.187L326.932 224.09L330.859 224.108Z" fill="#FF0000"/>
<path d="M330.859 224.108L311.454 212.747L313.433 216.187L326.932 224.09L330.859 224.108Z" fill="#FFB800"/>
<path d="M330.859 225.325L311.454 236.686L313.433 233.246L326.932 225.343L330.859 225.325Z" fill="#C4C4C4"/>
<path d="M330.859 225.325L311.454 236.686L313.433 233.246L326.932 225.343L330.859 225.325Z" fill="#FFB800"/>
</g>
<g opacity="0.2">
<path d="M355.052 213.241L355.052 235.963L357 232.505L357 216.698L355.052 213.241Z" fill="#C4C4C4"/>
<path d="M355.052 213.241L355.052 235.963L357 232.505L357 216.698L355.052 213.241Z" fill="#FFA800"/>
<path d="M355.052 213.241L355.052 235.963L357 232.505L357 216.698L355.052 213.241Z" fill="#FF0000"/>
<path d="M355.052 213.241L355.052 235.963L357 232.505L357 216.698L355.052 213.241Z" fill="#FFB800"/>
<path d="M376 224.108L356.595 212.747L358.573 216.187L372.073 224.09L376 224.108Z" fill="#C4C4C4"/>
<path d="M376 224.108L356.595 212.747L358.573 216.187L372.073 224.09L376 224.108Z" fill="#FFA800"/>
<path d="M376 224.108L356.595 212.747L358.573 216.187L372.073 224.09L376 224.108Z" fill="#FF0000"/>
<path d="M376 224.108L356.595 212.747L358.573 216.187L372.073 224.09L376 224.108Z" fill="#FFB800"/>
<path d="M376 225.325L356.595 236.686L358.573 233.246L372.073 225.343L376 225.325Z" fill="#C4C4C4"/>
<path d="M376 225.325L356.595 236.686L358.573 233.246L372.073 225.343L376 225.325Z" fill="#FFB800"/>
</g>
<g opacity="0.2">
<path d="M272.82 388.21L264.693 380.094L240.129 380.094L222.79 397.408L147.112 397.408L129.592 379.914L15.8037 379.914L1.35443 394.342L1.35442 547.825L41.993 588.405L62.9445 588.405L163.186 488.307L265.596 488.307L272.82 481.093L272.82 388.21Z" fill="#D9D9D9"/>
<path d="M272.82 388.21L264.693 380.094L240.129 380.094L222.79 397.408L147.112 397.408L129.592 379.914L15.8037 379.914L1.35443 394.342L1.35442 547.825L41.993 588.405L62.9445 588.405L163.186 488.307L265.596 488.307L272.82 481.093L272.82 388.21Z" fill="url(#paint0_linear_2634_8672)"/>
<path d="M272.82 388.21L264.693 380.094L240.129 380.094L222.79 397.408L147.112 397.408L129.592 379.914L15.8037 379.914L1.35443 394.342L1.35442 547.825L41.993 588.405L62.9445 588.405L163.186 488.307L265.596 488.307L272.82 481.093L272.82 388.21Z" stroke="black" stroke-width="2"/>
</g>
<g opacity="0.2">
<path d="M342.555 403.864L334.427 395.748L309.863 395.748L292.524 413.062L216.846 413.062L199.326 395.568L85.5381 395.568L71.0888 409.996L71.0888 563.479L111.727 604.059L132.679 604.059L232.921 503.962L335.33 503.962L342.555 496.748L342.555 403.864Z" stroke="white" stroke-width="2"/>
<path d="M342.555 403.864L334.427 395.748L309.863 395.748L292.524 413.062L216.846 413.062L199.326 395.568L85.5381 395.568L71.0888 409.996L71.0888 563.479L111.727 604.059L132.679 604.059L232.921 503.962L335.33 503.962L342.555 496.748L342.555 403.864Z" stroke="url(#paint1_linear_2634_8672)" stroke-width="2"/>
</g>
<g opacity="0.2">
<path d="M25.0213 95.9956L11.1163 95.9956L1.00348 107.549L1.00347 318.221L10.7551 327.969L40.3711 327.969L132.289 236.082L132.289 203.227L25.0213 95.9956Z" fill="#D9D9D9"/>
<path d="M25.0213 95.9956L11.1163 95.9956L1.00348 107.549L1.00347 318.221L10.7551 327.969L40.3711 327.969L132.289 236.082L132.289 203.227L25.0213 95.9956Z" fill="url(#paint2_linear_2634_8672)"/>
<path d="M25.0213 95.9956L11.1163 95.9956L1.00348 107.549L1.00347 318.221L10.7551 327.969L40.3711 327.969L132.289 236.082L132.289 203.227L25.0213 95.9956Z" stroke="black" stroke-width="2"/>
</g>
<g opacity="0.2">
<path d="M95.1073 111.294L81.2022 111.294L71.0894 122.848L71.0894 333.52L80.841 343.268L110.457 343.268L202.375 251.381L202.375 218.526L95.1073 111.294Z" stroke="white" stroke-width="2"/>
<path d="M95.1073 111.294L81.2022 111.294L71.0894 122.848L71.0894 333.52L80.841 343.268L110.457 343.268L202.375 251.381L202.375 218.526L95.1073 111.294Z" stroke="url(#paint3_linear_2634_8672)" stroke-width="2"/>
</g>
<g opacity="0.2">
<path d="M274.242 135.73L263.399 124.894L232.495 124.894L108.517 0.999993L17.6128 0.999989L1.70898 16.893L1.70898 53.3748L142.674 194.245L142.674 243.55L81.2279 304.954L81.2279 347.577L90.4449 356.787L124.06 356.787L170.868 310.011L251.471 310.011L274.242 287.075L274.242 135.73Z" fill="#D9D9D9"/>
<path d="M274.242 135.73L263.399 124.894L232.495 124.894L108.517 0.999993L17.6128 0.999989L1.70898 16.893L1.70898 53.3748L142.674 194.245L142.674 243.55L81.2279 304.954L81.2279 347.577L90.4449 356.787L124.06 356.787L170.868 310.011L251.471 310.011L274.242 287.075L274.242 135.73Z" fill="url(#paint4_linear_2634_8672)"/>
<path d="M274.242 135.73L263.399 124.894L232.495 124.894L108.517 0.999993L17.6128 0.999989L1.70898 16.893L1.70898 53.3748L142.674 194.245L142.674 243.55L81.2279 304.954L81.2279 347.577L90.4449 356.787L124.06 356.787L170.868 310.011L251.471 310.011L274.242 287.075L274.242 135.73Z" stroke="black" stroke-width="2"/>
</g>
<g opacity="0.2">
<path d="M345.758 152.096L334.914 141.26L304.01 141.26L180.033 17.3662L89.1284 17.3662L73.2246 33.2592L73.2246 69.741L214.19 210.611L214.19 259.916L152.744 321.321L152.744 363.943L161.961 373.154L195.575 373.154L242.383 326.378L322.986 326.378L345.758 303.441L345.758 152.096Z" stroke="white" stroke-width="2"/>
<path d="M345.758 152.096L334.914 141.26L304.01 141.26L180.033 17.3662L89.1284 17.3662L73.2246 33.2592L73.2246 69.741L214.19 210.611L214.19 259.916L152.744 321.321L152.744 363.943L161.961 373.154L195.575 373.154L242.383 326.378L322.986 326.378L345.758 303.441L345.758 152.096Z" stroke="url(#paint5_linear_2634_8672)" stroke-width="2"/>
</g>
<g opacity="0.2">
<path d="M272.82 516.855L264.328 508.353L175.611 508.714L111.649 572.756L111.649 588.133L119.418 593.742L170.191 593.742L215.001 548.876L267.761 548.876L272.82 541.278L272.82 516.855Z" fill="#D9D9D9"/>
<path d="M272.82 516.855L264.328 508.353L175.611 508.714L111.649 572.756L111.649 588.133L119.418 593.742L170.191 593.742L215.001 548.876L267.761 548.876L272.82 541.278L272.82 516.855Z" fill="url(#paint6_linear_2634_8672)"/>
<path d="M272.82 516.855L264.328 508.353L175.611 508.714L111.649 572.756L111.649 588.133L119.418 593.742L170.191 593.742L215.001 548.876L267.761 548.876L272.82 541.278L272.82 516.855Z" stroke="black" stroke-width="2"/>
</g>
</g>
<defs>
<linearGradient id="paint0_linear_2634_8672" x1="272.82" y1="484.006" x2="65.0289" y2="305.707" gradientUnits="userSpaceOnUse">
<stop stop-color="#FFC400"/>
<stop offset="1" stop-color="#FF3300"/>
</linearGradient>
<linearGradient id="paint1_linear_2634_8672" x1="342.555" y1="499.66" x2="134.763" y2="321.361" gradientUnits="userSpaceOnUse">
<stop stop-color="#FFC400"/>
<stop offset="1" stop-color="#FF3300"/>
</linearGradient>
<linearGradient id="paint2_linear_2634_8672" x1="132.289" y1="211.811" x2="-20.8849" y2="154.682" gradientUnits="userSpaceOnUse">
<stop stop-color="#FFC400"/>
<stop offset="1" stop-color="#FF3300"/>
</linearGradient>
<linearGradient id="paint3_linear_2634_8672" x1="202.375" y1="227.11" x2="49.2011" y2="169.981" gradientUnits="userSpaceOnUse">
<stop stop-color="#FFC400"/>
<stop offset="1" stop-color="#FF3300"/>
</linearGradient>
<linearGradient id="paint4_linear_2634_8672" x1="274.242" y1="178.632" x2="-14.405" y2="32.9213" gradientUnits="userSpaceOnUse">
<stop stop-color="#FFC400"/>
<stop offset="1" stop-color="#FF3300"/>
</linearGradient>
<linearGradient id="paint5_linear_2634_8672" x1="345.758" y1="194.998" x2="57.1106" y2="49.2875" gradientUnits="userSpaceOnUse">
<stop stop-color="#FFC400"/>
<stop offset="1" stop-color="#FF3300"/>
</linearGradient>
<linearGradient id="paint6_linear_2634_8672" x1="272.82" y1="550.984" x2="188.73" y2="446.385" gradientUnits="userSpaceOnUse">
<stop stop-color="#FFC400"/>
<stop offset="1" stop-color="#FF3300"/>
</linearGradient>
</defs>
</svg>
