<svg width="1917" height="807" viewBox="0 0 1917 807" fill="none" xmlns="http://www.w3.org/2000/svg">
<g opacity="0.5">
<g style="mix-blend-mode:screen" opacity="0.5">
<path d="M617.535 0V72.0384H453.298L418.854 110.707V72.0384H399.5V0H617.535Z" fill="url(#paint0_linear_2682_15399)" style="mix-blend-mode:screen"/>
<path d="M617.535 0V72.0384H453.298L418.854 110.707V72.0384H399.5V0H617.535Z" fill="url(#paint1_linear_2682_15399)"/>
</g>
<g style="mix-blend-mode:overlay">
<path d="M413.164 17.8558C413.164 15.9358 413.433 14.4766 414.009 13.4398C414.585 12.403 415.583 11.9038 417.081 11.9038C418.578 11.9038 419.577 12.403 420.114 13.4398C420.652 14.4766 420.959 15.9358 420.959 17.8558C420.959 19.7758 420.69 21.2734 420.114 22.3102C419.538 23.347 418.54 23.8846 417.081 23.8846C415.622 23.8846 414.585 23.347 414.009 22.3102C413.433 21.2734 413.164 19.7758 413.164 17.8558ZM420.191 17.8558C420.191 16.7422 420.114 15.8206 419.961 15.0526C419.807 14.2846 419.5 13.7086 419.039 13.2478C418.578 12.8254 417.926 12.595 417.081 12.595C416.236 12.595 415.583 12.8254 415.122 13.2478C414.662 13.6702 414.354 14.2846 414.201 15.0526C414.047 15.8206 413.97 16.7422 413.97 17.8558C413.97 18.9694 414.047 19.9294 414.201 20.6974C414.354 21.4654 414.662 22.0798 415.122 22.5022C415.583 22.963 416.236 23.1934 417.081 23.1934C417.926 23.1934 418.578 22.963 419.039 22.5022C419.5 22.0414 419.807 21.427 419.961 20.6974C420.114 19.9294 420.191 19.0078 420.191 17.8558Z" fill="white"/>
<path d="M424.417 22.6558V23.8078H423.227V22.6558H424.417Z" fill="white"/>
<path d="M426.68 17.8558C426.68 15.9358 426.948 14.4766 427.524 13.4398C428.1 12.403 429.099 11.9038 430.597 11.9038C432.094 11.9038 433.093 12.403 433.63 13.4398C434.168 14.4766 434.475 15.9358 434.475 17.8558C434.475 19.7758 434.206 21.2734 433.63 22.3102C433.054 23.347 432.056 23.8846 430.597 23.8846C429.137 23.8846 428.1 23.347 427.524 22.3102C426.948 21.2734 426.68 19.7758 426.68 17.8558ZM433.707 17.8558C433.707 16.7422 433.63 15.8206 433.477 15.0526C433.323 14.2846 433.016 13.7086 432.555 13.2478C432.094 12.787 431.441 12.595 430.597 12.595C429.752 12.595 429.099 12.8254 428.638 13.2478C428.177 13.6702 427.87 14.2846 427.717 15.0526C427.563 15.8206 427.486 16.7422 427.486 17.8558C427.486 18.9694 427.563 19.9294 427.717 20.6974C427.87 21.4654 428.177 22.0798 428.638 22.5022C429.099 22.963 429.752 23.1934 430.597 23.1934C431.441 23.1934 432.094 22.963 432.555 22.5022C433.016 22.0414 433.323 21.427 433.477 20.6974C433.63 19.9294 433.707 19.0078 433.707 17.8558Z" fill="white"/>
<path d="M444.771 12.672H438.32V17.5104C438.627 17.0496 439.088 16.704 439.664 16.4352C440.24 16.1664 440.893 16.0512 441.584 16.0512C442.851 16.0512 443.811 16.3968 444.426 17.1264C445.04 17.856 445.347 18.7392 445.347 19.8144C445.347 20.544 445.194 21.2352 444.925 21.8496C444.656 22.464 444.234 22.9632 443.619 23.3088C443.005 23.6544 442.314 23.8464 441.392 23.8464C440.317 23.8464 439.395 23.5392 438.666 22.9248C437.936 22.3104 437.514 21.504 437.398 20.4288H438.128C438.32 21.312 438.666 21.9648 439.242 22.4256C439.818 22.8864 440.509 23.1168 441.354 23.1168C442.429 23.1168 443.235 22.8096 443.773 22.1952C444.31 21.5808 444.579 20.736 444.579 19.7376C444.579 18.7392 444.31 18.0096 443.773 17.4336C443.235 16.896 442.467 16.5888 441.43 16.5888C440.739 16.5888 440.125 16.7424 439.549 17.0496C439.011 17.3568 438.589 17.7408 438.282 18.2784H437.59V11.9424H444.771V12.5952V12.672Z" fill="white"/>
<path d="M448.611 13.2864C448.918 12.8256 449.379 12.4799 449.955 12.2111C450.531 11.9423 451.222 11.8271 452.029 11.8271C452.835 11.8271 453.526 11.9423 454.102 12.2111C454.678 12.4799 455.139 12.8256 455.446 13.2864C455.754 13.7472 455.907 14.2848 455.907 14.8608C455.907 15.552 455.715 16.1663 455.331 16.6655C454.947 17.1647 454.333 17.5104 453.526 17.7024C454.371 17.8944 455.062 18.2399 455.523 18.7775C456.022 19.3151 456.253 19.9679 456.253 20.7743C456.253 21.8495 455.869 22.6943 455.139 23.3087C454.371 23.9231 453.373 24.2303 452.029 24.2303C450.685 24.2303 449.686 23.9231 448.918 23.3087C448.15 22.6943 447.805 21.8495 447.805 20.7743C447.805 19.9679 448.035 19.2767 448.534 18.7775C449.033 18.2399 449.686 17.8944 450.531 17.7024C449.725 17.5104 449.11 17.1647 448.726 16.6655C448.342 16.1663 448.15 15.5904 448.15 14.8992C448.15 14.3232 448.304 13.7856 448.611 13.3248V13.2864ZM449.494 22.8096C450.109 23.3088 450.954 23.5392 452.029 23.5392C453.104 23.5392 453.949 23.3088 454.563 22.8096C455.178 22.3104 455.523 21.6191 455.523 20.6975C455.523 19.7759 455.216 19.0848 454.563 18.6624C453.91 18.24 453.065 18.0096 452.067 18.0096C451.069 18.0096 450.224 18.24 449.571 18.6624C448.918 19.0848 448.611 19.7759 448.611 20.6975C448.611 21.6191 448.918 22.3104 449.533 22.8096H449.494ZM449.725 16.7808C450.301 17.2032 451.069 17.4336 452.029 17.4336C452.989 17.4336 453.757 17.2032 454.333 16.7808C454.909 16.3584 455.178 15.7439 455.178 14.9759C455.178 14.2079 454.909 13.5935 454.333 13.1327C453.757 12.7103 452.989 12.4799 452.029 12.4799C451.069 12.4799 450.301 12.7103 449.725 13.1327C449.149 13.5551 448.88 14.1695 448.88 14.9759C448.88 15.7823 449.149 16.3584 449.725 16.7808Z" fill="white"/>
<path d="M465.276 12.6721C465.852 13.2481 466.159 13.9393 466.159 14.8225C466.159 15.5521 465.929 16.1665 465.506 16.7041C465.046 17.2417 464.354 17.5489 463.394 17.6257V17.7025C464.316 17.9329 465.046 18.2785 465.583 18.7777C466.121 19.2385 466.39 19.9297 466.39 20.7745C466.39 21.6961 466.082 22.4641 465.468 23.0785C464.854 23.6545 463.97 23.9617 462.78 23.9617C461.59 23.9617 460.706 23.6545 459.977 23.0401C459.247 22.4257 458.825 21.5425 458.633 20.4289H459.401C459.554 21.2737 459.9 21.9649 460.476 22.5025C461.052 23.0401 461.82 23.2705 462.742 23.2705C463.663 23.2705 464.393 23.0401 464.892 22.5793C465.391 22.1185 465.622 21.5041 465.622 20.7361C465.622 19.8529 465.276 19.1617 464.585 18.7009C463.894 18.2401 462.895 18.0097 461.628 18.0097H461.321V17.3569H461.666C462.934 17.3569 463.894 17.1265 464.508 16.7041C465.122 16.2817 465.43 15.6673 465.43 14.8993C465.43 14.1697 465.199 13.5937 464.738 13.1713C464.278 12.7489 463.625 12.5185 462.78 12.5185C461.935 12.5185 461.244 12.7489 460.668 13.1713C460.092 13.6321 459.746 14.2849 459.631 15.2065H458.863C458.978 14.1697 459.362 13.3249 460.015 12.7489C460.706 12.1345 461.628 11.8657 462.78 11.8657C463.855 11.8657 464.7 12.1345 465.276 12.7105V12.6721Z" fill="white"/>
<path d="M419.925 32.064V32.7168H416.546V43.8528H415.778V32.7168H412.398V32.064H419.925Z" fill="white"/>
<path d="M421.304 40.819V40.2046L427.717 32.0254H428.485V40.1278H430.405V40.7806H428.485V43.7758H427.717V40.7806H421.266L421.304 40.819ZM427.794 33.0238L422.149 40.1278H427.794V33.0238Z" fill="white"/>
<path d="M437.125 39.2065C438.354 37.8241 438.968 36.5185 438.968 35.2897C438.968 34.4833 438.738 33.8305 438.354 33.3313C437.931 32.8321 437.24 32.5633 436.28 32.5633C435.32 32.5633 434.59 32.8705 434.053 33.4465C433.554 34.0609 433.246 34.8289 433.17 35.8273H432.44C432.517 34.5985 432.901 33.6001 433.592 32.9089C434.283 32.2177 435.205 31.8721 436.318 31.8721C437.317 31.8721 438.123 32.1409 438.776 32.6785C439.429 33.2161 439.736 34.0609 439.736 35.1745C439.736 36.1345 439.39 37.1329 438.738 38.1313C438.085 39.1297 437.278 40.0897 436.28 40.9345C435.282 41.7793 434.322 42.5473 433.323 43.1233H440.043V43.7761H432.133V43.2769C434.206 41.9329 435.858 40.5505 437.048 39.1681L437.125 39.2065Z" fill="white"/>
<path d="M444.504 42.6242C444.965 43.085 445.618 43.3154 446.462 43.3154C447.614 43.3154 448.459 42.893 449.074 42.0482C449.688 41.2034 449.957 39.8594 449.957 37.9778C449.957 37.6322 449.957 37.3634 449.957 37.2098C449.803 38.0162 449.381 38.6306 448.728 39.1298C448.037 39.5906 447.23 39.8211 446.309 39.8211C445.08 39.8211 444.158 39.4754 443.467 38.7458C442.776 38.0162 442.469 37.0562 442.469 35.789C442.469 35.0978 442.584 34.445 442.853 33.869C443.122 33.293 443.544 32.7938 444.12 32.4482C444.696 32.1026 445.426 31.9106 446.309 31.9106C447.96 31.9106 449.112 32.4483 449.726 33.4851C450.341 34.5219 450.648 35.9426 450.648 37.709C450.648 39.7058 450.341 41.2802 449.688 42.3554C449.035 43.4306 447.96 43.9682 446.462 43.9682C445.426 43.9682 444.581 43.6611 444.005 43.0851C443.39 42.4707 443.045 41.7026 442.93 40.7042H443.659C443.774 41.549 444.043 42.2018 444.542 42.6626L444.504 42.6242ZM449.458 34.3298C449.227 33.7922 448.843 33.3698 448.306 33.0242C447.768 32.6786 447.115 32.5251 446.309 32.5251C445.349 32.5251 444.619 32.8322 444.043 33.4082C443.467 33.9842 443.198 34.7906 443.198 35.789C443.198 36.9026 443.467 37.7474 444.043 38.3234C444.619 38.8994 445.387 39.2067 446.386 39.2067C446.962 39.2067 447.499 39.0915 448.037 38.8611C448.574 38.6307 448.997 38.285 449.304 37.8242C449.65 37.3634 449.803 36.7874 449.803 36.0962C449.803 35.4818 449.688 34.9058 449.419 34.3682L449.458 34.3298Z" fill="white"/>
<path d="M463.431 37.2095V37.8623H457.172V37.2095H463.431Z" fill="white"/>
<path d="M468.965 42.6242C469.426 43.085 470.078 43.3154 470.923 43.3154C472.075 43.3154 472.92 42.893 473.534 42.0482C474.149 41.2034 474.418 39.8594 474.418 37.9778C474.418 37.6322 474.418 37.3634 474.418 37.2098C474.264 38.0162 473.842 38.6306 473.189 39.1298C472.498 39.5906 471.691 39.8211 470.77 39.8211C469.541 39.8211 468.619 39.4754 467.928 38.7458C467.275 38.0162 466.93 37.0562 466.93 35.789C466.93 35.0978 467.045 34.445 467.314 33.869C467.582 33.293 468.005 32.7938 468.581 32.4482C469.157 32.1026 469.886 31.9106 470.77 31.9106C472.421 31.9106 473.573 32.4483 474.187 33.4851C474.802 34.5219 475.109 35.9426 475.109 37.709C475.109 39.7058 474.802 41.2802 474.149 42.3554C473.496 43.4306 472.421 43.9682 470.923 43.9682C469.886 43.9682 469.042 43.6611 468.466 43.0851C467.851 42.4707 467.506 41.7026 467.39 40.7042H468.12C468.235 41.549 468.542 42.2018 469.003 42.6626L468.965 42.6242ZM473.918 34.3298C473.688 33.7922 473.304 33.3698 472.766 33.0242C472.229 32.6786 471.576 32.5251 470.77 32.5251C469.81 32.5251 469.08 32.8322 468.504 33.4082C467.928 33.9842 467.659 34.7906 467.659 35.789C467.659 36.9026 467.928 37.7474 468.504 38.3234C469.08 38.8994 469.848 39.2067 470.846 39.2067C471.422 39.2067 471.96 39.0915 472.498 38.8611C473.035 38.6307 473.458 38.285 473.765 37.8242C474.11 37.3634 474.264 36.7874 474.264 36.0962C474.264 35.4818 474.149 34.9058 473.88 34.3682L473.918 34.3298Z" fill="white"/>
<path d="M478.525 33.3313C478.832 32.8705 479.293 32.5249 479.869 32.2561C480.445 31.9873 481.136 31.8721 481.943 31.8721C482.749 31.8721 483.44 31.9873 484.016 32.2561C484.592 32.5249 485.053 32.8705 485.36 33.3313C485.668 33.7921 485.821 34.3297 485.821 34.9057C485.821 35.5969 485.629 36.2113 485.245 36.7105C484.861 37.2097 484.247 37.5553 483.44 37.7473C484.285 37.9393 484.976 38.2849 485.437 38.8225C485.936 39.3601 486.167 40.0129 486.167 40.8193C486.167 41.8945 485.783 42.7393 485.053 43.3537C484.285 43.9681 483.287 44.2753 481.943 44.2753C480.599 44.2753 479.6 43.9681 478.832 43.3537C478.064 42.7393 477.719 41.8945 477.719 40.8193C477.719 40.0129 477.949 39.3217 478.448 38.8225C478.948 38.2849 479.6 37.9393 480.445 37.7473C479.639 37.5553 479.024 37.2097 478.64 36.7105C478.256 36.2113 478.064 35.6353 478.064 34.9441C478.064 34.3681 478.218 33.8305 478.525 33.3697V33.3313ZM479.408 42.8545C480.023 43.3537 480.868 43.5841 481.943 43.5841C483.018 43.5841 483.863 43.3537 484.477 42.8545C485.092 42.3553 485.437 41.6641 485.437 40.7425C485.437 39.8209 485.13 39.1297 484.477 38.7073C483.824 38.2849 482.98 38.0545 481.981 38.0545C480.983 38.0545 480.138 38.2849 479.485 38.7073C478.832 39.1297 478.525 39.8209 478.525 40.7425C478.525 41.6641 478.832 42.3553 479.447 42.8545H479.408ZM479.639 36.8257C480.215 37.2481 480.983 37.4785 481.943 37.4785C482.903 37.4785 483.671 37.2481 484.247 36.8257C484.823 36.4033 485.092 35.7889 485.092 35.0209C485.092 34.2529 484.823 33.6385 484.247 33.1777C483.671 32.7553 482.903 32.5249 481.943 32.5249C480.983 32.5249 480.215 32.7553 479.639 33.1777C479.063 33.6001 478.794 34.2145 478.794 35.0209C478.794 35.8273 479.063 36.4033 479.639 36.8257Z" fill="white"/>
</g>
<g style="mix-blend-mode:overlay">
<path d="M532.286 50.0356V51.3796H523.531V50.0356H532.286Z" fill="white"/>
<path d="M537.435 44.813C537.857 44.1986 538.471 43.6994 539.278 43.3154C540.084 42.9698 541.044 42.7778 542.158 42.7778C543.271 42.7778 544.231 42.9698 545.038 43.3154C545.844 43.661 546.459 44.1602 546.881 44.813C547.303 45.4274 547.495 46.157 547.495 46.9634C547.495 47.8466 547.227 48.653 546.727 49.3058C546.228 49.9586 545.46 50.4194 544.423 50.6882C545.499 50.957 546.382 51.4178 546.996 52.1474C547.611 52.877 547.918 53.7602 547.918 54.797C547.918 56.2562 547.38 57.4082 546.343 58.253C545.307 59.0978 543.886 59.5202 542.119 59.5202C540.353 59.5202 538.971 59.0978 537.934 58.253C536.897 57.4082 536.359 56.2562 536.359 54.797C536.359 53.7218 536.667 52.8386 537.281 52.1474C537.895 51.4178 538.74 50.957 539.854 50.6882C538.817 50.4194 538.049 49.9586 537.55 49.3058C537.051 48.653 536.782 47.885 536.782 46.9634C536.782 46.157 536.974 45.4658 537.396 44.813H537.435ZM539.086 57.2546C539.854 57.869 540.891 58.1762 542.158 58.1762C543.425 58.1762 544.462 57.869 545.23 57.2546C545.998 56.6402 546.382 55.7954 546.382 54.6818C546.382 53.5682 545.998 52.7234 545.191 52.1474C544.385 51.5714 543.387 51.3026 542.158 51.3026C540.929 51.3026 539.931 51.5714 539.124 52.1474C538.318 52.7234 537.934 53.5682 537.934 54.6818C537.934 55.7954 538.318 56.6402 539.086 57.2546ZM539.393 49.3826C540.084 49.9202 541.006 50.189 542.158 50.189C543.31 50.189 544.231 49.9202 544.923 49.3826C545.614 48.845 545.921 48.1154 545.921 47.117C545.921 46.1186 545.575 45.389 544.884 44.8514C544.193 44.3138 543.271 44.045 542.119 44.045C540.967 44.045 540.084 44.3138 539.393 44.8514C538.702 45.389 538.356 46.1186 538.356 47.117C538.356 48.1154 538.702 48.845 539.355 49.3826H539.393Z" fill="white"/>
<path d="M550.18 55.181V53.8754L558.512 43.085H560.202V53.7986H562.66V55.181H560.202V59.021H558.628V55.181H550.18ZM558.743 45.0434L551.869 53.7986H558.743V45.0434Z" fill="white"/>
<path d="M574.221 44.3523L568.154 59.0211H566.502L572.647 44.5059H563.93V43.1235H574.221V44.3523Z" fill="white"/>
<path d="M582.744 52.5315C584.318 50.7651 585.124 49.1139 585.124 47.5779C585.124 46.6179 584.856 45.8115 584.356 45.1971C583.857 44.5827 583.012 44.2755 581.899 44.2755C580.785 44.2755 579.825 44.6211 579.249 45.3507C578.635 46.0803 578.289 47.0787 578.212 48.3075H576.676C576.792 46.5795 577.329 45.2355 578.289 44.3139C579.249 43.3923 580.478 42.8931 582.052 42.8931C583.473 42.8931 584.587 43.2771 585.47 44.0451C586.353 44.8131 586.776 45.9267 586.776 47.3859C586.776 48.6147 586.353 49.9203 585.547 51.1875C584.74 52.4931 583.704 53.6835 582.475 54.7971C581.246 55.9107 580.017 56.8323 578.712 57.6003H587.236V58.9059H576.484V57.7923C579.134 56.0259 581.246 54.2595 582.82 52.4931L582.744 52.5315Z" fill="white"/>
<path d="M591.347 56.9858V59.021H589.273V56.9858H591.347Z" fill="white"/>
<path d="M603.096 44.3523L597.029 59.0211H595.377L601.522 44.5059H592.805V43.1235H603.096V44.3523Z" fill="white"/>
</g>
</g>
<g opacity="0.5">
<g style="mix-blend-mode:screen" opacity="0.5">
<path d="M1721.53 126V198.077H1557.33L1522.85 236.746V198.077H1503.5V126H1721.53Z" fill="url(#paint2_linear_2682_15399)" style="mix-blend-mode:screen"/>
<path d="M1721.53 126V198.077H1557.33L1522.85 236.746V198.077H1503.5V126H1721.53Z" fill="url(#paint3_linear_2682_15399)"/>
</g>
<g style="mix-blend-mode:overlay">
<path d="M1515.13 143.894C1515.13 141.974 1515.4 140.515 1515.98 139.478C1516.55 138.442 1517.55 137.942 1519.05 137.942C1520.55 137.942 1521.55 138.442 1522.08 139.478C1522.62 140.515 1522.93 141.974 1522.93 143.894C1522.93 145.814 1522.66 147.312 1522.08 148.349C1521.51 149.386 1520.51 149.923 1519.05 149.923C1517.59 149.923 1516.55 149.386 1515.98 148.349C1515.4 147.312 1515.13 145.814 1515.13 143.894ZM1522.16 143.894C1522.16 142.781 1522.08 141.859 1521.93 141.091C1521.78 140.323 1521.47 139.747 1521.01 139.286C1520.55 138.864 1519.89 138.634 1519.05 138.634C1518.2 138.634 1517.55 138.864 1517.09 139.286C1516.63 139.709 1516.32 140.323 1516.17 141.091C1516.02 141.859 1515.94 142.781 1515.94 143.894C1515.94 145.008 1516.02 145.968 1516.17 146.736C1516.32 147.504 1516.63 148.118 1517.09 148.541C1517.55 149.002 1518.2 149.232 1519.05 149.232C1519.89 149.232 1520.55 149.002 1521.01 148.541C1521.47 148.08 1521.78 147.466 1521.93 146.736C1522.08 145.968 1522.16 145.046 1522.16 143.894Z" fill="white"/>
<path d="M1526.39 148.656V149.808H1525.2V148.656H1526.39Z" fill="white"/>
<path d="M1528.65 143.894C1528.65 141.974 1528.92 140.515 1529.49 139.478C1530.07 138.442 1531.07 137.942 1532.57 137.942C1534.06 137.942 1535.06 138.442 1535.6 139.478C1536.14 140.515 1536.44 141.974 1536.44 143.894C1536.44 145.814 1536.17 147.312 1535.6 148.349C1535.02 149.386 1534.02 149.923 1532.57 149.923C1531.11 149.923 1530.07 149.386 1529.49 148.349C1528.92 147.312 1528.65 145.814 1528.65 143.894ZM1535.68 143.894C1535.68 142.781 1535.6 141.859 1535.45 141.091C1535.29 140.323 1534.98 139.747 1534.52 139.286C1534.06 138.864 1533.41 138.634 1532.57 138.634C1531.72 138.634 1531.07 138.864 1530.61 139.286C1530.15 139.709 1529.84 140.323 1529.69 141.091C1529.53 141.859 1529.45 142.781 1529.45 143.894C1529.45 145.008 1529.53 145.968 1529.69 146.736C1529.84 147.504 1530.15 148.118 1530.61 148.541C1531.07 149.002 1531.72 149.232 1532.57 149.232C1533.41 149.232 1534.06 149.002 1534.52 148.541C1534.98 148.08 1535.29 147.466 1535.45 146.736C1535.6 145.968 1535.68 145.046 1535.68 143.894Z" fill="white"/>
<path d="M1545.67 138.71C1546.24 139.286 1546.55 139.977 1546.55 140.861C1546.55 141.59 1546.32 142.205 1545.9 142.742C1545.44 143.28 1544.74 143.587 1543.78 143.664V143.741C1544.71 143.971 1545.44 144.317 1545.97 144.816C1546.51 145.277 1546.78 145.968 1546.78 146.813C1546.78 147.734 1546.47 148.502 1545.86 149.117C1545.24 149.693 1544.36 150 1543.17 150C1541.98 150 1541.1 149.693 1540.37 149.078C1539.64 148.464 1539.22 147.581 1539.02 146.467H1539.79C1539.94 147.312 1540.29 148.003 1540.87 148.541C1541.44 149.078 1542.21 149.309 1543.13 149.309C1544.05 149.309 1544.78 149.078 1545.28 148.617C1545.78 148.157 1546.01 147.542 1546.01 146.774C1546.01 145.891 1545.67 145.2 1544.98 144.739C1544.28 144.278 1543.29 144.048 1542.02 144.048H1541.71V143.395H1542.06C1543.32 143.395 1544.28 143.203 1544.9 142.742C1545.51 142.32 1545.82 141.705 1545.82 140.937C1545.82 140.208 1545.59 139.632 1545.13 139.209C1544.67 138.787 1544.02 138.557 1543.17 138.557C1542.33 138.557 1541.63 138.787 1541.06 139.209C1540.48 139.67 1540.14 140.323 1540.02 141.245H1539.25C1539.37 140.208 1539.75 139.363 1540.41 138.787C1541.1 138.173 1542.02 137.904 1543.17 137.904C1544.25 137.904 1545.09 138.173 1545.67 138.749V138.71Z" fill="white"/>
<path d="M1551.5 148.617C1551.96 149.078 1552.61 149.309 1553.45 149.309C1554.61 149.309 1555.45 148.886 1556.07 148.041C1556.68 147.197 1556.95 145.853 1556.95 143.971C1556.95 143.625 1556.95 143.357 1556.95 143.203C1556.8 144.009 1556.37 144.624 1555.72 145.123C1555.03 145.584 1554.22 145.814 1553.3 145.814C1552.07 145.814 1551.15 145.469 1550.46 144.739C1549.81 144.009 1549.46 143.049 1549.46 141.782C1549.46 141.091 1549.58 140.438 1549.84 139.862C1550.11 139.286 1550.54 138.787 1551.11 138.441C1551.69 138.096 1552.42 137.904 1553.3 137.904C1554.95 137.904 1556.1 138.441 1556.72 139.478C1557.33 140.515 1557.64 141.936 1557.64 143.702C1557.64 145.699 1557.33 147.273 1556.68 148.349C1556.03 149.424 1554.95 149.961 1553.45 149.961C1552.42 149.961 1551.57 149.654 1551 149.078C1550.38 148.464 1550.04 147.696 1549.92 146.697H1550.65C1550.77 147.542 1551.07 148.195 1551.53 148.656L1551.5 148.617ZM1556.45 140.323C1556.22 139.785 1555.84 139.363 1555.3 139.017C1554.76 138.672 1554.11 138.518 1553.3 138.518C1552.34 138.518 1551.61 138.825 1551.04 139.401C1550.46 139.977 1550.19 140.784 1550.19 141.782C1550.19 142.896 1550.46 143.741 1551.04 144.317C1551.61 144.893 1552.38 145.2 1553.38 145.2C1553.95 145.2 1554.49 145.085 1555.03 144.854C1555.57 144.624 1555.99 144.278 1556.3 143.817C1556.64 143.357 1556.8 142.781 1556.8 142.089C1556.8 141.475 1556.68 140.899 1556.41 140.361L1556.45 140.323Z" fill="white"/>
<path d="M1521.89 158.102V158.755H1518.51V169.891H1517.75V158.755H1514.37V158.102H1521.89Z" fill="white"/>
<path d="M1524.54 159.369C1524.85 158.909 1525.27 158.563 1525.89 158.294C1526.46 158.025 1527.15 157.91 1527.96 157.91C1528.77 157.91 1529.46 158.025 1530.03 158.294C1530.61 158.563 1531.07 158.909 1531.38 159.369C1531.68 159.83 1531.84 160.368 1531.84 160.944C1531.84 161.635 1531.65 162.249 1531.26 162.749C1530.88 163.248 1530.26 163.593 1529.46 163.785C1530.3 163.977 1530.99 164.323 1531.45 164.861C1531.95 165.398 1532.18 166.051 1532.18 166.857C1532.18 167.933 1531.8 168.777 1531.07 169.392C1530.3 170.006 1529.3 170.313 1527.96 170.313C1526.62 170.313 1525.62 170.006 1524.89 169.392C1524.12 168.777 1523.77 167.933 1523.77 166.857C1523.77 166.051 1524 165.36 1524.5 164.861C1525 164.323 1525.66 163.977 1526.5 163.785C1525.69 163.593 1525.08 163.248 1524.7 162.749C1524.31 162.249 1524.12 161.673 1524.12 160.982C1524.12 160.406 1524.27 159.869 1524.58 159.408L1524.54 159.369ZM1525.42 168.893C1526.04 169.392 1526.88 169.622 1527.96 169.622C1529.03 169.622 1529.88 169.392 1530.49 168.893C1531.11 168.393 1531.45 167.702 1531.45 166.781C1531.45 165.859 1531.15 165.168 1530.49 164.745C1529.84 164.323 1529 164.093 1528 164.093C1527 164.093 1526.15 164.323 1525.5 164.745C1524.85 165.168 1524.54 165.859 1524.54 166.781C1524.54 167.702 1524.85 168.393 1525.46 168.893H1525.42ZM1525.66 162.864C1526.23 163.286 1527 163.517 1527.96 163.517C1528.92 163.517 1529.69 163.286 1530.26 162.864C1530.84 162.441 1531.11 161.827 1531.11 161.059C1531.11 160.291 1530.84 159.677 1530.26 159.216C1529.69 158.793 1528.92 158.563 1527.96 158.563C1527 158.563 1526.23 158.793 1525.66 159.216C1525.08 159.638 1524.81 160.253 1524.81 161.059C1524.81 161.865 1525.08 162.441 1525.66 162.864Z" fill="white"/>
<path d="M1541.24 158.755C1541.82 159.331 1542.13 160.022 1542.13 160.905C1542.13 161.635 1541.9 162.249 1541.48 162.787C1541.01 163.324 1540.32 163.631 1539.36 163.708V163.785C1540.28 164.015 1541.01 164.361 1541.55 164.86C1542.09 165.321 1542.36 166.012 1542.36 166.857C1542.36 167.779 1542.05 168.547 1541.44 169.161C1540.82 169.737 1539.94 170.044 1538.75 170.044C1537.56 170.044 1536.68 169.737 1535.95 169.123C1535.22 168.508 1534.79 167.625 1534.6 166.511H1535.37C1535.52 167.356 1535.87 168.047 1536.44 168.585C1537.02 169.123 1537.79 169.353 1538.71 169.353C1539.63 169.353 1540.36 169.123 1540.86 168.662C1541.36 168.201 1541.59 167.587 1541.59 166.819C1541.59 165.935 1541.24 165.244 1540.55 164.783C1539.86 164.323 1538.86 164.092 1537.6 164.092H1537.29V163.439H1537.64C1538.9 163.439 1539.86 163.209 1540.48 162.787C1541.09 162.364 1541.4 161.75 1541.4 160.982C1541.4 160.252 1541.17 159.676 1540.71 159.254C1540.25 158.831 1539.59 158.601 1538.75 158.601C1537.9 158.601 1537.21 158.831 1536.64 159.254C1536.06 159.715 1535.72 160.367 1535.6 161.289H1534.87C1534.99 160.252 1535.37 159.407 1536.02 158.831C1536.71 158.217 1537.6 157.948 1538.79 157.948C1539.86 157.948 1540.71 158.217 1541.28 158.793L1541.24 158.755Z" fill="white"/>
<path d="M1545.78 168.701V169.853H1544.59V168.701H1545.78Z" fill="white"/>
<path d="M1554.23 159.216C1553.77 158.755 1553.12 158.525 1552.31 158.525C1551.16 158.525 1550.31 158.947 1549.7 159.792C1549.08 160.637 1548.82 161.981 1548.82 163.862C1548.82 164.208 1548.82 164.477 1548.82 164.63C1548.97 163.824 1549.35 163.21 1550.04 162.71C1550.74 162.25 1551.54 162.019 1552.46 162.019C1553.69 162.019 1554.61 162.365 1555.27 163.094C1555.92 163.824 1556.27 164.784 1556.27 166.051C1556.27 166.781 1556.15 167.395 1555.88 168.01C1555.61 168.624 1555.19 169.046 1554.61 169.43C1554.04 169.776 1553.31 169.968 1552.43 169.968C1550.77 169.968 1549.62 169.43 1549.01 168.394C1548.39 167.357 1548.09 165.936 1548.09 164.131C1548.09 162.096 1548.39 160.56 1549.08 159.485C1549.74 158.41 1550.81 157.872 1552.31 157.872C1553.35 157.872 1554.15 158.179 1554.77 158.755C1555.38 159.331 1555.69 160.138 1555.8 161.136H1555.07C1554.96 160.291 1554.65 159.638 1554.19 159.178L1554.23 159.216ZM1549.31 167.472C1549.55 168.01 1549.93 168.432 1550.47 168.778C1551 169.123 1551.66 169.277 1552.46 169.277C1553.42 169.277 1554.15 169.008 1554.73 168.432C1555.31 167.856 1555.57 167.088 1555.57 166.051C1555.57 164.938 1555.31 164.093 1554.73 163.517C1554.15 162.941 1553.39 162.634 1552.39 162.634C1551.81 162.634 1551.27 162.749 1550.74 162.979C1550.2 163.21 1549.78 163.555 1549.47 164.016C1549.12 164.477 1548.97 165.053 1548.97 165.744C1548.97 166.358 1549.08 166.934 1549.35 167.472H1549.31Z" fill="white"/>
<path d="M1565.4 158.755C1565.98 159.331 1566.28 160.022 1566.28 160.905C1566.28 161.635 1566.05 162.249 1565.63 162.787C1565.17 163.324 1564.48 163.631 1563.52 163.708V163.785C1564.44 164.015 1565.17 164.361 1565.71 164.86C1566.25 165.321 1566.51 166.012 1566.51 166.857C1566.51 167.779 1566.21 168.547 1565.59 169.161C1564.98 169.737 1564.1 170.044 1562.91 170.044C1561.71 170.044 1560.83 169.737 1560.1 169.123C1559.37 168.508 1558.95 167.625 1558.76 166.511H1559.53C1559.68 167.356 1560.03 168.047 1560.6 168.585C1561.18 169.123 1561.95 169.353 1562.87 169.353C1563.79 169.353 1564.52 169.123 1565.02 168.662C1565.52 168.201 1565.75 167.587 1565.75 166.819C1565.75 165.935 1565.4 165.244 1564.71 164.783C1564.02 164.323 1563.02 164.092 1561.75 164.092H1561.45V163.439H1561.79C1563.06 163.439 1564.02 163.209 1564.63 162.787C1565.25 162.364 1565.55 161.75 1565.55 160.982C1565.55 160.252 1565.32 159.676 1564.86 159.254C1564.4 158.831 1563.75 158.601 1562.91 158.601C1562.06 158.601 1561.37 158.831 1560.79 159.254C1560.22 159.715 1559.87 160.367 1559.76 161.289H1559.03C1559.14 160.252 1559.53 159.407 1560.18 158.831C1560.87 158.217 1561.75 157.948 1562.94 157.948C1564.02 157.948 1564.86 158.217 1565.44 158.793L1565.4 158.755Z" fill="white"/>
<path d="M1573.96 165.206C1575.19 163.824 1575.8 162.518 1575.8 161.29C1575.8 160.483 1575.57 159.83 1575.15 159.331C1574.73 158.832 1574.04 158.563 1573.08 158.563C1572.12 158.563 1571.35 158.87 1570.85 159.446C1570.35 160.061 1570.04 160.829 1569.97 161.827H1569.24C1569.31 160.598 1569.7 159.6 1570.39 158.909C1571.08 158.218 1572 157.872 1573.12 157.872C1574.11 157.872 1574.92 158.141 1575.57 158.678C1576.23 159.216 1576.53 160.061 1576.53 161.174C1576.53 162.134 1576.23 163.133 1575.53 164.131C1574.88 165.13 1574.08 166.09 1573.08 166.934C1572.12 167.818 1571.12 168.547 1570.12 169.123H1576.84V169.776H1568.93V169.277C1571 167.933 1572.65 166.55 1573.84 165.168L1573.96 165.206Z" fill="white"/>
</g>
<g style="mix-blend-mode:overlay">
<path d="M1619.78 176.073V177.417H1611.02V176.073H1619.78Z" fill="white"/>
<path d="M1630.03 178.57C1631.61 176.803 1632.41 175.152 1632.41 173.616C1632.41 172.656 1632.14 171.85 1631.64 171.235C1631.15 170.621 1630.3 170.314 1629.19 170.314C1628.07 170.314 1627.11 170.659 1626.54 171.389C1625.92 172.118 1625.58 173.117 1625.5 174.346H1623.96C1624.08 172.618 1624.62 171.274 1625.54 170.352C1626.5 169.43 1627.77 168.931 1629.3 168.931C1630.72 168.931 1631.84 169.315 1632.72 170.083C1633.6 170.851 1634.03 171.965 1634.03 173.424C1634.03 174.653 1633.6 175.958 1632.8 177.226C1631.99 178.531 1630.95 179.722 1629.72 180.835C1628.5 181.949 1627.23 182.87 1625.96 183.638H1634.49V184.944H1623.73V183.83C1626.38 182.064 1628.5 180.298 1630.07 178.531L1630.03 178.57Z" fill="white"/>
<path d="M1636.48 181.219V179.913L1644.86 169.123H1646.55V179.837H1649V181.219H1646.55V185.059H1644.97V181.219H1636.52H1636.48ZM1645.05 171.081L1638.17 179.837H1645.05V171.081Z" fill="white"/>
<path d="M1657.26 178.57C1658.83 176.803 1659.64 175.152 1659.64 173.616C1659.64 172.656 1659.37 171.85 1658.87 171.235C1658.37 170.621 1657.53 170.314 1656.41 170.314C1655.3 170.314 1654.34 170.659 1653.76 171.389C1653.15 172.118 1652.8 173.117 1652.73 174.346H1651.19C1651.31 172.618 1651.84 171.274 1652.8 170.352C1653.76 169.43 1654.99 168.931 1656.57 168.931C1657.99 168.931 1659.1 169.315 1659.99 170.083C1660.87 170.851 1661.29 171.965 1661.29 173.424C1661.29 174.653 1660.87 175.958 1660.06 177.226C1659.26 178.531 1658.22 179.722 1656.99 180.835C1655.76 181.949 1654.49 182.87 1653.23 183.638H1661.75V184.944H1651V183.83C1653.65 182.064 1655.76 180.298 1657.34 178.531L1657.26 178.57Z" fill="white"/>
<path d="M1665.85 183.024V185.059H1663.78V183.024H1665.85Z" fill="white"/>
<path d="M1678.76 170.467H1670.35V176.342C1670.78 175.804 1671.35 175.382 1672.08 175.036C1672.81 174.691 1673.66 174.537 1674.5 174.537C1676.19 174.537 1677.46 175.036 1678.3 175.996C1679.15 176.956 1679.53 178.185 1679.53 179.644C1679.53 181.257 1679.07 182.563 1678.19 183.6C1677.3 184.636 1675.96 185.136 1674.19 185.136C1672.66 185.136 1671.39 184.713 1670.39 183.868C1669.39 183.024 1668.86 181.872 1668.7 180.451H1670.24C1670.43 181.488 1670.85 182.294 1671.54 182.87C1672.24 183.446 1673.08 183.715 1674.08 183.715C1675.38 183.715 1676.34 183.331 1677 182.563C1677.65 181.795 1677.96 180.796 1677.96 179.568C1677.96 178.339 1677.61 177.417 1676.96 176.764C1676.31 176.073 1675.35 175.766 1674.12 175.766C1673.27 175.766 1672.5 175.958 1671.85 176.303C1671.2 176.649 1670.7 177.148 1670.35 177.801H1668.82V169.046H1678.69V170.428L1678.76 170.467Z" fill="white"/>
<path d="M1690.63 171.005C1690.05 170.429 1689.28 170.16 1688.29 170.16C1686.9 170.16 1685.87 170.697 1685.14 171.734C1684.41 172.771 1684.06 174.461 1684.06 176.765C1684.06 177.187 1684.06 177.533 1684.06 177.763C1684.25 176.765 1684.79 175.997 1685.67 175.421C1686.52 174.845 1687.56 174.537 1688.71 174.537C1690.32 174.537 1691.55 174.998 1692.47 175.958C1693.35 176.918 1693.82 178.224 1693.82 179.913C1693.82 180.873 1693.62 181.757 1693.24 182.563C1692.86 183.369 1692.28 183.984 1691.47 184.483C1690.67 184.944 1689.71 185.213 1688.52 185.213C1686.25 185.213 1684.71 184.521 1683.87 183.101C1683.02 181.68 1682.64 179.76 1682.64 177.341C1682.64 174.576 1683.1 172.464 1683.98 171.043C1684.87 169.622 1686.37 168.893 1688.4 168.893C1689.86 168.893 1690.97 169.315 1691.78 170.121C1692.59 170.966 1693.09 172.041 1693.2 173.385H1691.7C1691.59 172.349 1691.2 171.581 1690.67 171.005H1690.63ZM1684.68 181.68C1684.98 182.333 1685.44 182.87 1686.06 183.254C1686.67 183.638 1687.48 183.869 1688.44 183.869C1689.59 183.869 1690.51 183.523 1691.2 182.832C1691.89 182.141 1692.24 181.181 1692.24 179.952C1692.24 178.608 1691.89 177.609 1691.2 176.88C1690.51 176.189 1689.55 175.805 1688.32 175.805C1687.63 175.805 1686.98 175.958 1686.37 176.227C1685.75 176.496 1685.21 176.918 1684.83 177.494C1684.45 178.07 1684.22 178.761 1684.22 179.568C1684.22 180.336 1684.37 181.027 1684.68 181.68Z" fill="white"/>
<path d="M1696.12 181.219V179.913L1704.49 169.123H1706.18V179.837H1708.64V181.219H1706.18V185.059H1704.6V181.219H1696.16H1696.12ZM1704.68 171.081L1697.81 179.837H1704.68V171.081Z" fill="white"/>
</g>
</g>
<g opacity="0.5">
<g style="mix-blend-mode:screen" opacity="0.5">
<path d="M1551.57 735.707V663.669H1387.34L1352.85 625V663.669H1333.5V735.707H1551.57Z" fill="url(#paint4_linear_2682_15399)" style="mix-blend-mode:screen"/>
<path d="M1551.57 735.707V663.669H1387.34L1352.85 625V663.669H1333.5V735.707H1551.57Z" fill="url(#paint5_linear_2682_15399)"/>
</g>
<g style="mix-blend-mode:overlay">
<path d="M1347.2 681.794C1347.2 679.874 1347.47 678.415 1348.05 677.378C1348.62 676.341 1349.62 675.842 1351.12 675.842C1352.62 675.842 1353.62 676.341 1354.15 677.378C1354.69 678.415 1355 679.874 1355 681.794C1355 683.714 1354.73 685.211 1354.15 686.248C1353.58 687.285 1352.58 687.823 1351.12 687.823C1349.66 687.823 1348.62 687.285 1348.05 686.248C1347.47 685.211 1347.2 683.714 1347.2 681.794ZM1354.23 681.794C1354.23 680.68 1354.15 679.759 1354 678.991C1353.85 678.223 1353.54 677.647 1353.08 677.186C1352.62 676.725 1351.96 676.533 1351.12 676.533C1350.28 676.533 1349.62 676.763 1349.16 677.186C1348.7 677.608 1348.39 678.223 1348.24 678.991C1348.09 679.759 1348.01 680.68 1348.01 681.794C1348.01 682.907 1348.09 683.867 1348.24 684.635C1348.39 685.403 1348.7 686.018 1349.16 686.44C1349.62 686.901 1350.28 687.131 1351.12 687.131C1351.96 687.131 1352.62 686.901 1353.08 686.44C1353.54 685.979 1353.85 685.365 1354 684.635C1354.15 683.867 1354.23 682.946 1354.23 681.794Z" fill="white"/>
<path d="M1359.72 686.555C1360.18 687.016 1360.84 687.247 1361.68 687.247C1362.83 687.247 1363.68 686.824 1364.29 685.979C1364.91 685.135 1365.18 683.791 1365.18 681.909C1365.18 681.563 1365.18 681.295 1365.18 681.141C1365.02 681.947 1364.6 682.562 1363.95 683.061C1363.26 683.522 1362.45 683.752 1361.53 683.752C1360.3 683.752 1359.38 683.407 1358.69 682.677C1358.03 681.947 1357.69 680.987 1357.69 679.72C1357.69 679.029 1357.8 678.376 1358.07 677.8C1358.34 677.224 1358.76 676.725 1359.34 676.379C1359.91 676.034 1360.64 675.842 1361.53 675.842C1363.18 675.842 1364.33 676.379 1364.95 677.416C1365.56 678.453 1365.87 679.874 1365.87 681.64C1365.87 683.637 1365.56 685.211 1364.91 686.287C1364.25 687.362 1363.18 687.899 1361.68 687.899C1360.64 687.899 1359.8 687.592 1359.22 687.016C1358.65 686.44 1358.26 685.634 1358.15 684.635H1358.88C1358.99 685.48 1359.3 686.133 1359.76 686.594L1359.72 686.555ZM1364.68 678.261C1364.45 677.723 1364.06 677.301 1363.52 676.955C1362.99 676.61 1362.33 676.456 1361.53 676.456C1360.57 676.456 1359.84 676.763 1359.26 677.339C1358.69 677.915 1358.42 678.722 1358.42 679.72C1358.42 680.834 1358.69 681.679 1359.26 682.255C1359.84 682.831 1360.61 683.138 1361.6 683.138C1362.18 683.138 1362.72 683.023 1363.26 682.792C1363.79 682.562 1364.22 682.216 1364.52 681.755C1364.87 681.295 1365.02 680.719 1365.02 680.027C1365.02 679.413 1364.91 678.837 1364.64 678.299L1364.68 678.261Z" fill="white"/>
<path d="M1370.59 686.555C1371.05 687.016 1371.7 687.247 1372.55 687.247C1373.7 687.247 1374.55 686.824 1375.16 685.979C1375.77 685.135 1376.04 683.791 1376.04 681.909C1376.04 681.563 1376.04 681.295 1376.04 681.141C1375.89 681.947 1375.47 682.562 1374.81 683.061C1374.12 683.522 1373.32 683.752 1372.39 683.752C1371.17 683.752 1370.24 683.407 1369.55 682.677C1368.9 681.947 1368.55 680.987 1368.55 679.72C1368.55 679.029 1368.67 678.376 1368.94 677.8C1369.21 677.224 1369.63 676.725 1370.21 676.379C1370.78 676.034 1371.51 675.842 1372.39 675.842C1374.05 675.842 1375.2 676.379 1375.81 677.416C1376.43 678.453 1376.73 679.874 1376.73 681.64C1376.73 683.637 1376.43 685.211 1375.77 686.287C1375.12 687.362 1374.05 687.899 1372.55 687.899C1371.51 687.899 1370.67 687.592 1370.09 687.016C1369.48 686.402 1369.13 685.634 1369.02 684.635H1369.75C1369.86 685.48 1370.17 686.133 1370.63 686.594L1370.59 686.555ZM1375.54 678.261C1375.31 677.723 1374.93 677.301 1374.39 676.955C1373.85 676.61 1373.2 676.456 1372.39 676.456C1371.43 676.456 1370.71 676.763 1370.13 677.339C1369.55 677.915 1369.28 678.722 1369.28 679.72C1369.28 680.834 1369.55 681.679 1370.13 682.255C1370.71 682.831 1371.47 683.138 1372.47 683.138C1373.05 683.138 1373.59 683.023 1374.12 682.792C1374.66 682.562 1375.08 682.216 1375.39 681.755C1375.74 681.295 1375.89 680.719 1375.89 680.027C1375.89 679.413 1375.77 678.837 1375.51 678.299L1375.54 678.261Z" fill="white"/>
<path d="M1380.15 686.594V687.746H1378.96V686.594H1380.15Z" fill="white"/>
<path d="M1389.9 676.609H1383.45V681.448C1383.76 680.987 1384.22 680.642 1384.8 680.373C1385.37 680.104 1386.03 679.989 1386.72 679.989C1387.98 679.989 1388.94 680.334 1389.56 681.064C1390.17 681.794 1390.48 682.677 1390.48 683.752C1390.48 684.481 1390.33 685.173 1390.06 685.787C1389.79 686.401 1389.37 686.901 1388.75 687.246C1388.14 687.592 1387.45 687.784 1386.52 687.784C1385.45 687.784 1384.53 687.477 1383.8 686.862C1383.07 686.248 1382.65 685.442 1382.53 684.366H1383.26C1383.45 685.25 1383.8 685.902 1384.37 686.363C1384.95 686.824 1385.64 687.054 1386.49 687.054C1387.56 687.054 1388.37 686.747 1388.91 686.133C1389.44 685.518 1389.71 684.673 1389.71 683.675C1389.71 682.677 1389.44 681.909 1388.91 681.371C1388.37 680.834 1387.6 680.526 1386.56 680.526C1385.87 680.526 1385.26 680.68 1384.68 680.987C1384.14 681.294 1383.72 681.678 1383.41 682.216H1382.72V675.88H1389.9V676.533V676.609Z" fill="white"/>
<path d="M1397.78 683.099C1399.01 681.717 1399.62 680.411 1399.62 679.182C1399.62 678.376 1399.39 677.723 1399.01 677.224C1398.59 676.725 1397.9 676.456 1396.94 676.456C1395.98 676.456 1395.25 676.763 1394.71 677.339C1394.21 677.953 1393.9 678.721 1393.83 679.72H1393.1C1393.17 678.491 1393.56 677.493 1394.25 676.801C1394.94 676.11 1395.86 675.765 1396.97 675.765C1397.97 675.765 1398.78 676.033 1399.43 676.571C1400.08 677.109 1400.39 677.953 1400.39 679.067C1400.39 680.027 1400.05 681.025 1399.39 682.024C1398.74 683.022 1397.93 683.982 1396.94 684.827C1395.98 685.71 1394.98 686.44 1393.98 687.016H1400.7V687.669H1392.79V687.169C1394.86 685.825 1396.51 684.443 1397.7 683.061L1397.78 683.099Z" fill="white"/>
<path d="M1405.15 686.555C1405.61 687.016 1406.27 687.247 1407.11 687.247C1408.26 687.247 1409.11 686.824 1409.72 685.979C1410.34 685.135 1410.61 683.791 1410.61 681.909C1410.61 681.563 1410.61 681.295 1410.61 681.141C1410.45 681.947 1410.03 682.562 1409.38 683.061C1408.69 683.522 1407.88 683.752 1406.96 683.752C1405.73 683.752 1404.81 683.407 1404.12 682.677C1403.46 681.947 1403.12 680.987 1403.12 679.72C1403.12 679.029 1403.23 678.376 1403.5 677.8C1403.77 677.224 1404.19 676.725 1404.77 676.379C1405.34 676.034 1406.07 675.842 1406.96 675.842C1408.61 675.842 1409.76 676.379 1410.37 677.416C1410.99 678.453 1411.3 679.874 1411.3 681.64C1411.3 683.637 1410.99 685.211 1410.34 686.287C1409.68 687.362 1408.61 687.899 1407.11 687.899C1406.07 687.899 1405.23 687.592 1404.65 687.016C1404.04 686.402 1403.69 685.634 1403.58 684.635H1404.31C1404.42 685.48 1404.73 686.133 1405.19 686.594L1405.15 686.555ZM1410.11 678.261C1409.88 677.723 1409.49 677.301 1408.95 676.955C1408.42 676.61 1407.76 676.456 1406.96 676.456C1406 676.456 1405.27 676.763 1404.69 677.339C1404.12 677.915 1403.85 678.722 1403.85 679.72C1403.85 680.834 1404.12 681.679 1404.69 682.255C1405.27 682.831 1406.04 683.138 1407.03 683.138C1407.61 683.138 1408.15 683.023 1408.69 682.792C1409.22 682.562 1409.65 682.216 1409.95 681.755C1410.3 681.295 1410.45 680.719 1410.45 680.027C1410.45 679.413 1410.34 678.837 1410.07 678.299L1410.11 678.261Z" fill="white"/>
<path d="M1353.96 696.001V696.654H1350.58V707.79H1349.82V696.654H1346.44V696.001H1353.96Z" fill="white"/>
<path d="M1356 701.838C1356 699.918 1356.27 698.459 1356.84 697.422C1357.42 696.385 1358.42 695.886 1359.92 695.886C1361.41 695.886 1362.41 696.385 1362.95 697.422C1363.49 698.459 1363.8 699.918 1363.8 701.838C1363.8 703.758 1363.53 705.256 1362.95 706.293C1362.37 707.329 1361.38 707.867 1359.92 707.867C1358.46 707.867 1357.42 707.329 1356.84 706.293C1356.27 705.256 1356 703.758 1356 701.838ZM1363.03 701.838C1363.03 700.725 1362.95 699.803 1362.8 699.035C1362.64 698.267 1362.34 697.691 1361.88 697.23C1361.41 696.808 1360.76 696.577 1359.92 696.577C1359.07 696.577 1358.42 696.808 1357.96 697.23C1357.5 697.653 1357.19 698.267 1357.04 699.035C1356.88 699.803 1356.81 700.725 1356.81 701.838C1356.81 702.952 1356.88 703.912 1357.04 704.68C1357.19 705.448 1357.5 706.062 1357.96 706.485C1358.42 706.945 1359.07 707.176 1359.92 707.176C1360.76 707.176 1361.41 706.945 1361.88 706.485C1362.34 706.024 1362.64 705.409 1362.8 704.68C1362.95 703.912 1363.03 702.99 1363.03 701.838Z" fill="white"/>
<path d="M1374.08 696.616H1367.63V701.454C1367.94 700.993 1368.4 700.648 1368.98 700.379C1369.55 700.11 1370.21 699.995 1370.9 699.995C1372.16 699.995 1373.12 700.341 1373.74 701.07C1374.35 701.8 1374.66 702.683 1374.66 703.758C1374.66 704.488 1374.51 705.179 1374.24 705.793C1373.97 706.408 1373.55 706.907 1372.93 707.253C1372.36 707.637 1371.63 707.79 1370.7 707.79C1369.63 707.79 1368.71 707.483 1367.98 706.869C1367.25 706.254 1366.83 705.448 1366.71 704.373H1367.44C1367.63 705.256 1367.98 705.909 1368.55 706.369C1369.13 706.83 1369.82 707.061 1370.67 707.061C1371.74 707.061 1372.55 706.753 1373.09 706.139C1373.62 705.525 1373.89 704.68 1373.89 703.681C1373.89 702.683 1373.62 701.953 1373.09 701.377C1372.55 700.84 1371.78 700.533 1370.74 700.533C1370.05 700.533 1369.44 700.686 1368.86 700.993C1368.32 701.301 1367.9 701.685 1367.59 702.222H1366.9V695.886H1374.08V696.539V696.616Z" fill="white"/>
<path d="M1381.92 703.144C1383.15 701.762 1383.76 700.456 1383.76 699.227C1383.76 698.421 1383.57 697.768 1383.15 697.269C1382.73 696.77 1382.04 696.501 1381.08 696.501C1380.12 696.501 1379.39 696.808 1378.85 697.384C1378.35 697.998 1378.04 698.766 1377.97 699.765H1377.24C1377.31 698.536 1377.7 697.538 1378.39 696.846C1379.08 696.155 1380 695.81 1381.12 695.81C1382.11 695.81 1382.92 696.078 1383.57 696.616C1384.23 697.154 1384.53 697.998 1384.53 699.112C1384.53 700.072 1384.19 701.032 1383.53 702.069C1382.88 703.067 1382.08 704.027 1381.08 704.872C1380.12 705.755 1379.12 706.485 1378.12 707.061H1384.84V707.714H1376.93V707.214C1379 705.87 1380.65 704.488 1381.84 703.106L1381.92 703.144Z" fill="white"/>
<path d="M1394.9 696.616H1388.44V701.454C1388.75 700.993 1389.21 700.648 1389.79 700.379C1390.37 700.11 1391.02 699.995 1391.71 699.995C1392.98 699.995 1393.94 700.341 1394.55 701.07C1395.16 701.8 1395.47 702.683 1395.47 703.758C1395.47 704.488 1395.32 705.179 1395.05 705.793C1394.78 706.408 1394.36 706.907 1393.74 707.253C1393.17 707.637 1392.44 707.79 1391.52 707.79C1390.44 707.79 1389.52 707.483 1388.79 706.869C1388.06 706.254 1387.64 705.448 1387.52 704.373H1388.25C1388.45 705.256 1388.79 705.909 1389.37 706.369C1389.94 706.83 1390.63 707.061 1391.48 707.061C1392.55 707.061 1393.36 706.753 1393.9 706.139C1394.44 705.525 1394.7 704.68 1394.7 703.681C1394.7 702.683 1394.44 701.953 1393.9 701.377C1393.36 700.84 1392.59 700.533 1391.56 700.533C1390.86 700.533 1390.25 700.686 1389.67 700.993C1389.14 701.301 1388.71 701.685 1388.41 702.222H1387.72V695.886H1394.9V696.539V696.616Z" fill="white"/>
<path d="M1404.49 696.654C1405.07 697.23 1405.38 697.921 1405.38 698.804C1405.38 699.534 1405.15 700.148 1404.73 700.686C1404.26 701.224 1403.57 701.531 1402.61 701.608V701.684C1403.53 701.915 1404.26 702.26 1404.8 702.76C1405.34 703.22 1405.61 703.912 1405.61 704.756C1405.61 705.678 1405.3 706.446 1404.69 707.06C1404.07 707.636 1403.19 707.944 1402 707.944C1400.81 707.944 1399.93 707.636 1399.2 707.022C1398.47 706.408 1398.04 705.524 1397.85 704.411H1398.62C1398.77 705.256 1399.12 705.947 1399.69 706.484C1400.27 707.022 1401.04 707.252 1401.96 707.252C1402.88 707.252 1403.61 707.022 1404.11 706.561C1404.61 706.1 1404.84 705.486 1404.84 704.718C1404.84 703.835 1404.49 703.144 1403.8 702.683C1403.11 702.222 1402.11 701.992 1400.85 701.992H1400.54V701.339H1400.89C1402.15 701.339 1403.11 701.147 1403.73 700.686C1404.34 700.264 1404.65 699.649 1404.65 698.881C1404.65 698.152 1404.42 697.576 1403.96 697.153C1403.5 696.731 1402.84 696.5 1402 696.5C1401.15 696.5 1400.46 696.731 1399.89 697.153C1399.31 697.614 1398.97 698.267 1398.85 699.188H1398.08C1398.2 698.152 1398.58 697.307 1399.23 696.731C1399.93 696.116 1400.85 695.848 1402 695.848C1403.07 695.848 1403.92 696.116 1404.49 696.692V696.654Z" fill="white"/>
<path d="M1407.76 704.756V704.142L1414.18 695.963H1414.95V704.065H1416.87V704.718H1414.95V707.713H1414.18V704.718H1407.73L1407.76 704.756ZM1414.25 696.961L1408.61 704.065H1414.25V696.961Z" fill="white"/>
<path d="M1419.55 706.6V707.752H1418.36V706.6H1419.55Z" fill="white"/>
<path d="M1421.16 704.756V704.142L1427.58 695.963H1428.34V704.065H1430.26V704.718H1428.34V707.713H1427.58V704.718H1421.12L1421.16 704.756ZM1427.65 696.961L1422.01 704.065H1427.65V696.961Z" fill="white"/>
<path d="M1438.48 697.154C1438.02 696.693 1437.37 696.462 1436.56 696.462C1435.41 696.462 1434.56 696.885 1433.95 697.73C1433.33 698.574 1433.07 699.918 1433.07 701.8C1433.07 702.146 1433.07 702.414 1433.07 702.568C1433.22 701.762 1433.6 701.147 1434.29 700.648C1434.99 700.187 1435.79 699.957 1436.71 699.957C1437.94 699.957 1438.86 700.302 1439.52 701.032C1440.17 701.762 1440.52 702.722 1440.52 703.989C1440.52 704.718 1440.4 705.333 1440.13 705.947C1439.86 706.523 1439.44 706.984 1438.86 707.368C1438.29 707.714 1437.56 707.906 1436.68 707.906C1435.02 707.906 1433.87 707.368 1433.26 706.331C1432.64 705.294 1432.34 703.874 1432.34 702.069C1432.34 700.034 1432.68 698.498 1433.33 697.422C1433.99 696.347 1435.06 695.81 1436.56 695.81C1437.6 695.81 1438.4 696.117 1439.02 696.693C1439.59 697.269 1439.94 698.075 1440.05 699.074H1439.32C1439.21 698.229 1438.9 697.576 1438.44 697.115L1438.48 697.154ZM1433.56 705.41C1433.8 705.947 1434.18 706.37 1434.72 706.715C1435.25 707.061 1435.91 707.214 1436.71 707.214C1437.67 707.214 1438.4 706.946 1438.98 706.37C1439.56 705.794 1439.82 705.026 1439.82 703.989C1439.82 702.875 1439.56 702.03 1438.98 701.454C1438.4 700.878 1437.64 700.571 1436.64 700.571C1436.06 700.571 1435.52 700.686 1434.99 700.917C1434.45 701.147 1434.03 701.493 1433.72 701.954C1433.37 702.414 1433.22 702.99 1433.22 703.682C1433.22 704.296 1433.33 704.872 1433.6 705.41H1433.56Z" fill="white"/>
</g>
<g style="mix-blend-mode:overlay">
<path d="M1451.85 713.973V715.317H1443.09V713.973H1451.85Z" fill="white"/>
<path d="M1456.11 714.971C1456.11 712.436 1456.49 710.44 1457.3 709.019C1458.11 707.598 1459.53 706.907 1461.56 706.907C1463.6 706.907 1464.98 707.598 1465.82 709.019C1466.63 710.44 1467.05 712.398 1467.05 714.971C1467.05 717.544 1466.63 719.54 1465.82 720.923C1465.02 722.344 1463.6 723.035 1461.56 723.035C1459.53 723.035 1458.11 722.344 1457.3 720.923C1456.49 719.502 1456.11 717.505 1456.11 714.971ZM1465.44 714.971C1465.44 713.588 1465.33 712.436 1465.13 711.476C1464.94 710.516 1464.56 709.787 1463.98 709.211C1463.41 708.673 1462.6 708.366 1461.56 708.366C1460.53 708.366 1459.68 708.635 1459.1 709.211C1458.53 709.748 1458.14 710.516 1457.95 711.476C1457.76 712.436 1457.65 713.588 1457.65 714.971C1457.65 716.353 1457.76 717.544 1457.95 718.504C1458.14 719.464 1458.53 720.193 1459.1 720.769C1459.68 721.307 1460.49 721.614 1461.56 721.614C1462.64 721.614 1463.41 721.345 1463.98 720.769C1464.56 720.232 1464.94 719.464 1465.13 718.504C1465.33 717.544 1465.44 716.392 1465.44 714.971Z" fill="white"/>
<path d="M1473.13 721C1473.7 721.576 1474.47 721.844 1475.47 721.844C1476.89 721.844 1477.93 721.307 1478.66 720.27C1479.35 719.195 1479.73 717.505 1479.73 715.201C1479.73 714.779 1479.73 714.472 1479.73 714.28C1479.54 715.24 1479 716.046 1478.12 716.622C1477.27 717.198 1476.24 717.505 1475.08 717.505C1473.51 717.505 1472.24 717.044 1471.36 716.084C1470.48 715.124 1470.02 713.78 1470.02 712.091C1470.02 711.131 1470.21 710.248 1470.59 709.441C1470.98 708.635 1471.55 708.02 1472.32 707.521C1473.09 707.06 1474.09 706.83 1475.28 706.83C1477.54 706.83 1479.08 707.521 1479.92 708.904C1480.77 710.286 1481.19 712.206 1481.19 714.625C1481.19 717.39 1480.77 719.502 1479.88 720.961C1479 722.42 1477.54 723.15 1475.55 723.15C1474.09 723.15 1472.93 722.728 1472.09 721.921C1471.24 721.076 1470.78 720.001 1470.63 718.619H1472.13C1472.28 719.656 1472.63 720.462 1473.2 721H1473.13ZM1478.46 709.403C1477.77 708.558 1476.7 708.174 1475.31 708.174C1474.16 708.174 1473.24 708.52 1472.55 709.211C1471.86 709.902 1471.51 710.862 1471.51 712.091C1471.51 713.435 1471.86 714.433 1472.55 715.163C1473.24 715.892 1474.2 716.238 1475.43 716.238C1476.12 716.238 1476.77 716.084 1477.43 715.816C1478.08 715.547 1478.58 715.124 1478.96 714.548C1479.35 713.972 1479.58 713.281 1479.58 712.475C1479.58 711.284 1479.23 710.286 1478.54 709.441L1478.46 709.403Z" fill="white"/>
<path d="M1485.18 708.75C1485.6 708.136 1486.21 707.637 1487.02 707.253C1487.83 706.907 1488.79 706.715 1489.9 706.715C1491.01 706.715 1491.97 706.907 1492.78 707.253C1493.59 707.598 1494.2 708.097 1494.62 708.75C1495.05 709.364 1495.24 710.094 1495.24 710.9C1495.24 711.784 1494.97 712.59 1494.47 713.243C1493.97 713.896 1493.2 714.356 1492.17 714.625C1493.24 714.894 1494.12 715.355 1494.74 716.084C1495.35 716.814 1495.66 717.697 1495.66 718.734C1495.66 720.193 1495.12 721.345 1494.09 722.19C1493.05 723.035 1491.63 723.457 1489.86 723.457C1488.1 723.457 1486.71 723.035 1485.68 722.19C1484.64 721.345 1484.1 720.193 1484.1 718.734C1484.1 717.659 1484.41 716.776 1485.02 716.084C1485.64 715.355 1486.48 714.894 1487.6 714.625C1486.56 714.356 1485.79 713.896 1485.29 713.243C1484.79 712.59 1484.52 711.822 1484.52 710.9C1484.52 710.094 1484.72 709.403 1485.14 708.75H1485.18ZM1486.83 721.192C1487.6 721.806 1488.63 722.113 1489.9 722.113C1491.17 722.113 1492.2 721.806 1492.97 721.192C1493.74 720.577 1494.12 719.732 1494.12 718.619C1494.12 717.505 1493.74 716.66 1492.93 716.084C1492.13 715.508 1491.13 715.24 1489.9 715.24C1488.67 715.24 1487.67 715.508 1486.87 716.084C1486.06 716.66 1485.68 717.505 1485.68 718.619C1485.68 719.732 1486.06 720.577 1486.83 721.192ZM1487.14 713.32C1487.83 713.857 1488.75 714.126 1489.9 714.126C1491.05 714.126 1491.97 713.857 1492.66 713.32C1493.36 712.782 1493.66 712.052 1493.66 711.054C1493.66 710.056 1493.32 709.326 1492.63 708.788C1491.94 708.251 1491.01 707.982 1489.86 707.982C1488.71 707.982 1487.83 708.251 1487.14 708.788C1486.44 709.326 1486.1 710.056 1486.1 711.054C1486.1 712.052 1486.44 712.782 1487.1 713.32H1487.14Z" fill="white"/>
<path d="M1506.84 708.904C1506.26 708.328 1505.49 708.059 1504.5 708.059C1503.11 708.059 1502.08 708.596 1501.35 709.633C1500.62 710.67 1500.27 712.36 1500.27 714.664C1500.27 715.086 1500.27 715.431 1500.27 715.662C1500.46 714.663 1501 713.895 1501.89 713.319C1502.73 712.743 1503.77 712.436 1504.92 712.436C1506.53 712.436 1507.76 712.897 1508.68 713.857C1509.57 714.817 1510.03 716.123 1510.03 717.812C1510.03 718.772 1509.83 719.655 1509.45 720.462C1509.07 721.268 1508.49 721.883 1507.68 722.382C1506.88 722.881 1505.92 723.112 1504.73 723.112C1502.46 723.112 1500.93 722.42 1500.08 720.999C1499.24 719.579 1498.85 717.659 1498.85 715.239C1498.85 712.475 1499.31 710.363 1500.2 708.942C1501.08 707.521 1502.58 706.792 1504.61 706.792C1506.07 706.792 1507.18 707.214 1507.99 708.02C1508.8 708.865 1509.3 709.94 1509.41 711.284H1507.91C1507.8 710.247 1507.41 709.48 1506.88 708.904H1506.84ZM1500.89 719.579C1501.19 720.232 1501.65 720.769 1502.27 721.153C1502.88 721.537 1503.69 721.768 1504.65 721.768C1505.8 721.768 1506.72 721.422 1507.41 720.731C1508.11 720.04 1508.45 719.08 1508.45 717.851C1508.45 716.507 1508.11 715.508 1507.41 714.779C1506.72 714.049 1505.76 713.704 1504.53 713.704C1503.84 713.704 1503.19 713.857 1502.58 714.126C1501.96 714.395 1501.42 714.817 1501.04 715.393C1500.62 715.969 1500.43 716.66 1500.43 717.467C1500.43 718.235 1500.58 718.926 1500.89 719.579Z" fill="white"/>
<path d="M1514.44 720.923V722.958H1512.37V720.923H1514.44Z" fill="white"/>
<path d="M1519.89 721C1520.47 721.576 1521.24 721.844 1522.23 721.844C1523.65 721.844 1524.69 721.307 1525.42 720.27C1526.15 719.195 1526.5 717.505 1526.5 715.201C1526.5 714.779 1526.5 714.472 1526.5 714.28C1526.3 715.24 1525.77 716.046 1524.88 716.622C1524.04 717.198 1523 717.505 1521.85 717.505C1520.28 717.505 1519.01 717.044 1518.13 716.084C1517.24 715.124 1516.78 713.78 1516.78 712.091C1516.78 711.131 1516.97 710.248 1517.36 709.441C1517.74 708.635 1518.32 708.02 1519.09 707.521C1519.85 707.06 1520.85 706.83 1522.04 706.83C1524.31 706.83 1525.84 707.521 1526.69 708.904C1527.53 710.286 1527.96 712.206 1527.96 714.625C1527.96 717.39 1527.53 719.502 1526.65 720.961C1525.77 722.42 1524.31 723.15 1522.31 723.15C1520.85 723.15 1519.7 722.728 1518.85 721.921C1518.01 721.076 1517.55 720.001 1517.4 718.619H1518.89C1519.05 719.656 1519.39 720.462 1519.97 721H1519.89ZM1525.23 709.403C1524.54 708.558 1523.46 708.174 1522.08 708.174C1520.93 708.174 1520.01 708.52 1519.32 709.211C1518.62 709.902 1518.28 710.862 1518.28 712.091C1518.28 713.435 1518.62 714.433 1519.32 715.163C1520.01 715.892 1520.97 716.238 1522.2 716.238C1522.89 716.238 1523.54 716.084 1524.19 715.816C1524.85 715.547 1525.34 715.124 1525.73 714.548C1526.11 713.972 1526.34 713.281 1526.34 712.475C1526.34 711.284 1526 710.286 1525.31 709.441L1525.23 709.403Z" fill="white"/>
<path d="M1531.95 708.75C1532.37 708.136 1532.99 707.637 1533.79 707.253C1534.6 706.907 1535.56 706.715 1536.67 706.715C1537.79 706.715 1538.75 706.907 1539.55 707.253C1540.36 707.598 1540.97 708.097 1541.4 708.75C1541.82 709.364 1542.01 710.094 1542.01 710.9C1542.01 711.784 1541.74 712.59 1541.24 713.243C1540.74 713.896 1539.98 714.356 1538.94 714.625C1540.01 714.894 1540.9 715.355 1541.51 716.084C1542.13 716.814 1542.43 717.697 1542.43 718.734C1542.43 720.193 1541.9 721.345 1540.86 722.19C1539.82 723.035 1538.4 723.457 1536.63 723.457C1534.87 723.457 1533.49 723.035 1532.45 722.19C1531.41 721.345 1530.88 720.193 1530.88 718.734C1530.88 717.659 1531.18 716.776 1531.8 716.084C1532.41 715.355 1533.26 714.894 1534.37 714.625C1533.33 714.356 1532.56 713.896 1532.07 713.243C1531.57 712.59 1531.3 711.822 1531.3 710.9C1531.3 710.094 1531.49 709.403 1531.91 708.75H1531.95ZM1533.6 721.192C1534.37 721.806 1535.41 722.113 1536.67 722.113C1537.94 722.113 1538.98 721.806 1539.75 721.192C1540.51 720.577 1540.9 719.732 1540.9 718.619C1540.9 717.505 1540.51 716.66 1539.71 716.084C1538.9 715.508 1537.9 715.24 1536.67 715.24C1535.44 715.24 1534.45 715.508 1533.64 716.084C1532.83 716.66 1532.45 717.505 1532.45 718.619C1532.45 719.732 1532.83 720.577 1533.6 721.192ZM1533.91 713.32C1534.6 713.857 1535.52 714.126 1536.67 714.126C1537.83 714.126 1538.75 713.857 1539.44 713.32C1540.13 712.782 1540.44 712.052 1540.44 711.054C1540.44 710.056 1540.09 709.326 1539.4 708.788C1538.71 708.251 1537.79 707.982 1536.63 707.982C1535.48 707.982 1534.6 708.251 1533.91 708.788C1533.22 709.326 1532.87 710.056 1532.87 711.054C1532.87 712.052 1533.22 712.782 1533.87 713.32H1533.91Z" fill="white"/>
</g>
</g>
<g opacity="0.5">
<g style="mix-blend-mode:screen" opacity="0.5">
<path d="M550.5 720.746V648.707H714.737L749.182 610V648.707H768.535V720.746H550.5Z" fill="url(#paint6_linear_2682_15399)" style="mix-blend-mode:screen"/>
<path d="M550.5 720.746V648.707H714.737L749.182 610V648.707H768.535V720.746H550.5Z" fill="url(#paint7_linear_2682_15399)"/>
</g>
<g style="mix-blend-mode:overlay">
<path d="M564.172 666.448C564.172 664.528 564.441 663.068 565.017 662.032C565.593 660.995 566.591 660.496 568.089 660.496C569.586 660.496 570.585 660.995 571.122 662.032C571.66 663.068 571.967 664.528 571.967 666.448C571.967 668.368 571.698 669.865 571.122 670.902C570.546 671.939 569.548 672.476 568.089 672.476C566.629 672.476 565.593 671.939 565.017 670.902C564.441 669.865 564.172 668.368 564.172 666.448ZM571.199 666.448C571.199 665.334 571.122 664.412 570.969 663.644C570.815 662.876 570.508 662.3 570.047 661.84C569.586 661.417 568.933 661.187 568.089 661.187C567.244 661.187 566.591 661.417 566.13 661.84C565.669 662.262 565.362 662.876 565.209 663.644C565.055 664.412 564.978 665.334 564.978 666.448C564.978 667.561 565.055 668.521 565.209 669.289C565.362 670.057 565.669 670.672 566.13 671.094C566.591 671.555 567.244 671.785 568.089 671.785C568.933 671.785 569.586 671.555 570.047 671.094C570.508 670.633 570.815 670.019 570.969 669.289C571.122 668.521 571.199 667.6 571.199 666.448Z" fill="white"/>
<path d="M574.117 669.366V668.751L580.529 660.572H581.297V668.675H583.217V669.328H581.297V672.323H580.529V669.328H574.078L574.117 669.366ZM580.606 661.571L574.961 668.675H580.606V661.571Z" fill="white"/>
<path d="M585.909 671.248V672.4H584.719V671.248H585.909Z" fill="white"/>
<path d="M594.355 661.763C593.894 661.302 593.241 661.072 592.435 661.072C591.283 661.072 590.438 661.494 589.824 662.339C589.209 663.184 588.941 664.528 588.941 666.409C588.941 666.755 588.941 667.024 588.941 667.177C589.094 666.371 589.478 665.756 590.169 665.257C590.861 664.796 591.667 664.566 592.589 664.566C593.817 664.566 594.739 664.912 595.392 665.641C596.045 666.371 596.39 667.331 596.39 668.598C596.39 669.328 596.275 669.942 596.006 670.556C595.737 671.132 595.315 671.593 594.739 671.977C594.163 672.323 593.433 672.515 592.55 672.515C590.899 672.515 589.747 671.977 589.133 670.941C588.518 669.904 588.211 668.483 588.211 666.678C588.211 664.643 588.557 663.107 589.209 662.032C589.862 660.956 590.937 660.419 592.435 660.419C593.472 660.419 594.278 660.726 594.893 661.302C595.469 661.878 595.814 662.685 595.929 663.683H595.2C595.085 662.838 594.777 662.185 594.317 661.725L594.355 661.763ZM589.44 670.019C589.67 670.557 590.054 670.979 590.592 671.325C591.129 671.67 591.782 671.824 592.589 671.824C593.549 671.824 594.278 671.555 594.854 670.979C595.43 670.403 595.699 669.635 595.699 668.598C595.699 667.485 595.43 666.64 594.854 666.064C594.278 665.488 593.51 665.181 592.512 665.181C591.936 665.181 591.398 665.296 590.861 665.526C590.323 665.756 589.901 666.102 589.593 666.563C589.248 667.024 589.094 667.6 589.094 668.291C589.094 668.905 589.209 669.481 589.478 670.019H589.44Z" fill="white"/>
<path d="M605.534 661.264C606.11 661.84 606.417 662.531 606.417 663.414C606.417 664.144 606.187 664.758 605.764 665.295C605.303 665.833 604.612 666.14 603.652 666.217V666.294C604.574 666.524 605.303 666.87 605.841 667.369C606.379 667.83 606.647 668.521 606.647 669.366C606.647 670.287 606.34 671.055 605.726 671.67C605.111 672.246 604.228 672.553 603.038 672.553C601.847 672.553 600.964 672.246 600.235 671.631C599.505 671.017 599.083 670.134 598.891 669.02H599.659C599.812 669.865 600.158 670.556 600.734 671.094C601.31 671.632 602.078 671.862 602.999 671.862C603.921 671.862 604.651 671.631 605.15 671.171C605.649 670.71 605.879 670.096 605.879 669.328C605.879 668.444 605.534 667.753 604.843 667.292C604.151 666.831 603.153 666.601 601.886 666.601H601.579V665.948H601.924C603.191 665.948 604.151 665.756 604.766 665.295C605.38 664.873 605.687 664.259 605.687 663.491C605.687 662.761 605.457 662.185 604.996 661.763C604.535 661.34 603.883 661.11 603.038 661.11C602.193 661.11 601.502 661.34 600.926 661.763C600.35 662.224 600.004 662.876 599.889 663.798H599.121C599.236 662.761 599.62 661.916 600.273 661.34C600.964 660.726 601.886 660.457 603.038 660.457C604.113 660.457 604.958 660.726 605.534 661.302V661.264Z" fill="white"/>
<path d="M616.166 661.187L611.597 672.361H610.79L615.437 661.225H608.602V660.572H616.205V661.187H616.166Z" fill="white"/>
<path d="M620.434 671.209C620.894 671.67 621.547 671.9 622.392 671.9C623.544 671.9 624.389 671.478 625.003 670.633C625.618 669.788 625.886 668.444 625.886 666.563C625.886 666.217 625.886 665.948 625.886 665.795C625.733 666.601 625.31 667.216 624.658 667.715C623.966 668.176 623.16 668.406 622.238 668.406C621.01 668.406 620.088 668.06 619.397 667.331C618.706 666.601 618.398 665.641 618.398 664.374C618.398 663.683 618.514 663.03 618.782 662.454C619.051 661.878 619.474 661.379 620.05 661.033C620.626 660.688 621.355 660.496 622.238 660.496C623.89 660.496 625.042 661.033 625.656 662.07C626.27 663.107 626.578 664.528 626.578 666.294C626.578 668.291 626.27 669.865 625.618 670.94C624.965 672.016 623.89 672.553 622.392 672.553C621.355 672.553 620.51 672.246 619.934 671.67C619.32 671.056 618.974 670.288 618.859 669.289H619.589C619.704 670.134 620.011 670.787 620.472 671.248L620.434 671.209ZM625.387 662.915C625.157 662.377 624.773 661.955 624.235 661.609C623.698 661.264 623.045 661.11 622.238 661.11C621.278 661.11 620.549 661.417 619.973 661.993C619.397 662.569 619.128 663.376 619.128 664.374C619.128 665.488 619.397 666.332 619.973 666.908C620.549 667.484 621.317 667.792 622.315 667.792C622.891 667.792 623.429 667.676 623.966 667.446C624.504 667.216 624.926 666.87 625.234 666.409C625.579 665.948 625.733 665.372 625.733 664.681C625.733 664.067 625.618 663.491 625.349 662.953L625.387 662.915Z" fill="white"/>
<path d="M570.933 680.656V681.309H567.553V692.445H566.785V681.309H563.406V680.656H570.933Z" fill="white"/>
<path d="M573.008 686.492C573.008 684.572 573.277 683.113 573.853 682.077C574.429 681.04 575.427 680.541 576.925 680.541C578.422 680.541 579.421 681.04 579.958 682.077C580.496 683.113 580.803 684.572 580.803 686.492C580.803 688.412 580.534 689.91 579.958 690.947C579.382 691.984 578.384 692.521 576.925 692.521C575.465 692.521 574.429 691.984 573.853 690.947C573.277 689.91 573.008 688.412 573.008 686.492ZM580.035 686.492C580.035 685.379 579.958 684.457 579.805 683.689C579.651 682.921 579.344 682.345 578.883 681.885C578.422 681.462 577.769 681.232 576.925 681.232C576.08 681.232 575.427 681.462 574.966 681.885C574.505 682.307 574.198 682.921 574.045 683.689C573.891 684.457 573.814 685.379 573.814 686.492C573.814 687.606 573.891 688.566 574.045 689.334C574.198 690.102 574.505 690.717 574.966 691.139C575.427 691.6 576.08 691.83 576.925 691.83C577.769 691.83 578.422 691.6 578.883 691.139C579.344 690.678 579.651 690.064 579.805 689.334C579.958 688.566 580.035 687.644 580.035 686.492Z" fill="white"/>
<path d="M583.602 686.492C583.602 684.572 583.87 683.113 584.446 682.077C585.022 681.04 586.021 680.541 587.518 680.541C589.016 680.541 590.014 681.04 590.552 682.077C591.09 683.113 591.397 684.572 591.397 686.492C591.397 688.412 591.128 689.91 590.552 690.947C589.976 691.984 588.978 692.521 587.518 692.521C586.059 692.521 585.022 691.984 584.446 690.947C583.87 689.91 583.602 688.412 583.602 686.492ZM590.629 686.492C590.629 685.379 590.552 684.457 590.398 683.689C590.245 682.921 589.938 682.345 589.477 681.885C589.016 681.462 588.363 681.232 587.518 681.232C586.674 681.232 586.021 681.462 585.56 681.885C585.099 682.307 584.792 682.921 584.638 683.689C584.485 684.457 584.408 685.379 584.408 686.492C584.408 687.606 584.485 688.566 584.638 689.334C584.792 690.102 585.099 690.717 585.56 691.139C586.021 691.6 586.674 691.83 587.518 691.83C588.363 691.83 589.016 691.6 589.477 691.139C589.938 690.678 590.245 690.064 590.398 689.334C590.552 688.566 590.629 687.644 590.629 686.492Z" fill="white"/>
<path d="M600.612 681.308C601.188 681.884 601.495 682.576 601.495 683.459C601.495 684.188 601.265 684.803 600.842 685.34C600.382 685.878 599.69 686.185 598.73 686.262V686.339C599.652 686.569 600.382 686.915 600.919 687.414C601.457 687.875 601.726 688.566 601.726 689.411C601.726 690.332 601.418 691.1 600.804 691.715C600.19 692.291 599.306 692.598 598.116 692.598C596.926 692.598 596.042 692.291 595.313 691.676C594.583 691.062 594.161 690.179 593.969 689.065H594.737C594.89 689.91 595.236 690.601 595.812 691.139C596.388 691.676 597.156 691.907 598.078 691.907C598.999 691.907 599.729 691.676 600.228 691.216C600.727 690.755 600.958 690.14 600.958 689.372C600.958 688.489 600.612 687.798 599.921 687.337C599.23 686.876 598.231 686.646 596.964 686.646H596.657V685.993H597.002C598.27 685.993 599.23 685.801 599.844 685.34C600.458 684.918 600.766 684.304 600.766 683.536C600.766 682.806 600.535 682.23 600.074 681.808C599.614 681.385 598.961 681.155 598.116 681.155C597.271 681.155 596.58 681.385 596.004 681.808C595.428 682.268 595.082 682.921 594.967 683.843H594.199C594.314 682.806 594.698 681.961 595.351 681.385C596.042 680.771 596.964 680.502 598.116 680.502C599.191 680.502 600.036 680.771 600.612 681.347V681.308Z" fill="white"/>
<path d="M605.189 681.923C605.496 681.462 605.957 681.117 606.533 680.848C607.109 680.579 607.8 680.464 608.607 680.464C609.413 680.464 610.104 680.579 610.68 680.848C611.256 681.117 611.717 681.462 612.024 681.923C612.332 682.384 612.485 682.921 612.485 683.497C612.485 684.189 612.293 684.803 611.909 685.302C611.525 685.801 610.911 686.147 610.104 686.339C610.949 686.531 611.64 686.877 612.101 687.414C612.6 687.952 612.831 688.605 612.831 689.411C612.831 690.486 612.447 691.331 611.717 691.945C610.949 692.56 609.951 692.867 608.607 692.867C607.263 692.867 606.264 692.56 605.496 691.945C604.728 691.331 604.383 690.486 604.383 689.411C604.383 688.605 604.613 687.913 605.112 687.414C605.612 686.877 606.264 686.531 607.109 686.339C606.303 686.147 605.688 685.801 605.304 685.302C604.92 684.803 604.728 684.227 604.728 683.536C604.728 682.96 604.882 682.422 605.189 681.961V681.923ZM606.072 691.446C606.687 691.945 607.532 692.176 608.607 692.176C609.682 692.176 610.527 691.945 611.141 691.446C611.756 690.947 612.101 690.256 612.101 689.334C612.101 688.413 611.794 687.721 611.141 687.299C610.488 686.877 609.644 686.646 608.645 686.646C607.647 686.646 606.802 686.877 606.149 687.299C605.496 687.721 605.189 688.413 605.189 689.334C605.189 690.256 605.496 690.947 606.111 691.446H606.072ZM606.303 685.417C606.879 685.84 607.647 686.07 608.607 686.07C609.567 686.07 610.335 685.84 610.911 685.417C611.487 684.995 611.756 684.381 611.756 683.613C611.756 682.845 611.487 682.23 610.911 681.769C610.335 681.347 609.567 681.117 608.607 681.117C607.647 681.117 606.879 681.347 606.303 681.769C605.727 682.192 605.458 682.806 605.458 683.613C605.458 684.419 605.727 684.995 606.303 685.417Z" fill="white"/>
<path d="M614.788 689.411V688.796L621.201 680.617H621.969V688.72H623.889V689.372H621.969V692.368H621.201V689.372H614.75L614.788 689.411ZM621.278 681.616L615.633 688.72H621.278V681.616Z" fill="white"/>
<path d="M632.105 681.808C631.644 681.347 630.991 681.117 630.185 681.117C629.033 681.117 628.188 681.539 627.574 682.384C626.959 683.229 626.691 684.573 626.691 686.454C626.691 686.8 626.691 687.069 626.691 687.222C626.844 686.416 627.228 685.801 627.919 685.302C628.611 684.841 629.417 684.611 630.339 684.611C631.567 684.611 632.489 684.957 633.142 685.686C633.795 686.416 634.14 687.376 634.14 688.643C634.14 689.373 634.025 689.987 633.756 690.601C633.487 691.177 633.065 691.638 632.489 692.022C631.913 692.368 631.183 692.56 630.3 692.56C628.649 692.56 627.497 692.022 626.883 690.985C626.268 689.949 625.961 688.528 625.961 686.723C625.961 684.688 626.307 683.152 626.959 682.077C627.612 681.001 628.687 680.464 630.185 680.464C631.222 680.464 632.028 680.771 632.643 681.347C633.219 681.923 633.564 682.729 633.679 683.728H632.95C632.835 682.883 632.527 682.23 632.067 681.769L632.105 681.808ZM627.19 690.064C627.42 690.601 627.804 691.024 628.342 691.369C628.879 691.715 629.532 691.869 630.339 691.869C631.299 691.869 632.028 691.6 632.604 691.024C633.18 690.448 633.449 689.68 633.449 688.643C633.449 687.529 633.18 686.685 632.604 686.109C632.028 685.533 631.26 685.225 630.262 685.225C629.686 685.225 629.148 685.341 628.611 685.571C628.073 685.801 627.651 686.147 627.343 686.608C626.998 687.069 626.844 687.645 626.844 688.336C626.844 688.95 626.959 689.526 627.228 690.064H627.19Z" fill="white"/>
</g>
<g style="mix-blend-mode:overlay">
<path d="M667.81 698.627V699.971H659.055V698.627H667.81Z" fill="white"/>
<path d="M672.031 699.626C672.031 697.091 672.415 695.094 673.222 693.674C674.028 692.253 675.449 691.562 677.484 691.562C679.519 691.562 680.902 692.253 681.746 693.674C682.591 695.094 682.975 697.053 682.975 699.626C682.975 702.198 682.553 704.195 681.746 705.578C680.94 706.998 679.519 707.69 677.484 707.69C675.449 707.69 674.028 706.998 673.222 705.578C672.415 704.157 672.031 702.16 672.031 699.626ZM681.362 699.626C681.362 698.243 681.247 697.091 681.055 696.131C680.863 695.171 680.479 694.442 679.903 693.866C679.327 693.328 678.521 693.021 677.484 693.021C676.447 693.021 675.602 693.29 675.026 693.866C674.45 694.403 674.066 695.171 673.874 696.131C673.682 697.091 673.567 698.243 673.567 699.626C673.567 701.008 673.682 702.198 673.874 703.158C674.066 704.118 674.45 704.848 675.026 705.424C675.602 705.962 676.409 706.269 677.484 706.269C678.559 706.269 679.327 706 679.903 705.424C680.479 704.886 680.863 704.118 681.055 703.158C681.247 702.198 681.362 701.046 681.362 699.626Z" fill="white"/>
<path d="M686.125 699.626C686.125 697.091 686.509 695.094 687.315 693.674C688.122 692.253 689.543 691.562 691.578 691.562C693.613 691.562 694.995 692.253 695.84 693.674C696.685 695.094 697.069 697.053 697.069 699.626C697.069 702.198 696.647 704.195 695.84 705.578C695.034 706.998 693.613 707.69 691.578 707.69C689.543 707.69 688.122 706.998 687.315 705.578C686.509 704.157 686.125 702.16 686.125 699.626ZM695.456 699.626C695.456 698.243 695.341 697.091 695.149 696.131C694.957 695.171 694.573 694.442 693.997 693.866C693.421 693.328 692.615 693.021 691.578 693.021C690.541 693.021 689.696 693.29 689.12 693.866C688.544 694.403 688.16 695.171 687.968 696.131C687.776 697.091 687.661 698.243 687.661 699.626C687.661 701.008 687.776 702.198 687.968 703.158C688.16 704.118 688.544 704.848 689.12 705.424C689.696 705.962 690.503 706.269 691.578 706.269C692.653 706.269 693.421 706 693.997 705.424C694.573 704.886 694.957 704.118 695.149 703.158C695.341 702.198 695.456 701.046 695.456 699.626Z" fill="white"/>
<path d="M701.067 693.405C701.49 692.79 702.104 692.291 702.911 691.907C703.717 691.562 704.677 691.37 705.791 691.37C706.904 691.37 707.864 691.562 708.671 691.907C709.477 692.253 710.091 692.752 710.514 693.405C710.936 694.058 711.128 694.749 711.128 695.555C711.128 696.438 710.859 697.245 710.36 697.898C709.861 698.55 709.093 699.011 708.056 699.28C709.131 699.549 710.015 700.01 710.629 700.739C711.243 701.469 711.551 702.352 711.551 703.389C711.551 704.848 711.013 706 709.976 706.845C708.939 707.69 707.519 708.112 705.752 708.112C703.986 708.112 702.603 707.69 701.567 706.845C700.53 706 699.992 704.848 699.992 703.389C699.992 702.314 700.299 701.43 700.914 700.739C701.528 700.01 702.373 699.549 703.487 699.28C702.45 699.011 701.682 698.55 701.183 697.898C700.683 697.245 700.415 696.477 700.415 695.555C700.415 694.749 700.607 694.058 701.029 693.405H701.067ZM702.719 705.846C703.487 706.461 704.523 706.768 705.791 706.768C707.058 706.768 708.095 706.461 708.863 705.846C709.631 705.232 710.015 704.387 710.015 703.274C710.015 702.16 709.631 701.315 708.824 700.739C708.018 700.163 707.019 699.894 705.791 699.894C704.562 699.894 703.563 700.163 702.757 700.739C701.951 701.315 701.567 702.16 701.567 703.274C701.567 704.387 701.951 705.232 702.719 705.846ZM703.026 697.974C703.717 698.512 704.639 698.781 705.791 698.781C706.943 698.781 707.864 698.512 708.555 697.974C709.247 697.437 709.554 696.707 709.554 695.709C709.554 694.71 709.208 693.981 708.517 693.443C707.826 692.906 706.904 692.637 705.752 692.637C704.6 692.637 703.717 692.906 703.026 693.443C702.335 693.981 701.989 694.71 701.989 695.709C701.989 696.707 702.335 697.437 702.987 697.974H703.026Z" fill="white"/>
<path d="M722.682 693.559C722.106 692.983 721.339 692.714 720.34 692.714C718.958 692.714 717.921 693.252 717.191 694.288C716.462 695.325 716.116 697.015 716.116 699.319C716.116 699.741 716.116 700.087 716.116 700.317C716.308 699.319 716.846 698.551 717.729 697.975C718.574 697.399 719.61 697.092 720.762 697.092C722.375 697.092 723.604 697.552 724.526 698.512C725.409 699.472 725.87 700.778 725.87 702.468C725.87 703.428 725.678 704.311 725.294 705.117C724.91 705.924 724.334 706.538 723.527 707.037C722.721 707.498 721.761 707.767 720.571 707.767C718.305 707.767 716.769 707.076 715.924 705.655C715.079 704.234 714.695 702.314 714.695 699.895C714.695 697.13 715.156 695.018 716.039 693.597C716.922 692.176 718.42 691.447 720.455 691.447C721.915 691.447 723.028 691.869 723.834 692.676C724.641 693.52 725.14 694.596 725.255 695.94H723.758C723.642 694.903 723.258 694.135 722.721 693.559H722.682ZM716.731 704.234C717.038 704.887 717.498 705.424 718.113 705.808C718.727 706.192 719.534 706.423 720.494 706.423C721.646 706.423 722.567 706.077 723.258 705.386C723.95 704.695 724.295 703.735 724.295 702.506C724.295 701.162 723.95 700.164 723.258 699.434C722.567 698.743 721.607 698.359 720.378 698.359C719.687 698.359 719.035 698.512 718.42 698.781C717.806 699.05 717.268 699.472 716.884 700.048C716.462 700.624 716.27 701.316 716.27 702.122C716.27 702.89 716.423 703.581 716.731 704.234Z" fill="white"/>
<path d="M730.285 705.578V707.613H728.211V705.578H730.285Z" fill="white"/>
<path d="M742.041 692.944L735.974 707.613H734.323L740.467 693.098H731.75V691.715H742.041V692.944Z" fill="white"/>
<path d="M745.489 693.405C745.912 692.79 746.526 692.291 747.332 691.907C748.139 691.562 749.099 691.37 750.212 691.37C751.326 691.37 752.286 691.562 753.092 691.907C753.899 692.253 754.513 692.752 754.936 693.405C755.358 694.019 755.55 694.749 755.55 695.555C755.55 696.438 755.281 697.245 754.782 697.898C754.283 698.55 753.515 699.011 752.478 699.28C753.553 699.549 754.436 700.01 755.051 700.739C755.665 701.469 755.972 702.352 755.972 703.389C755.972 704.848 755.435 706 754.398 706.845C753.361 707.69 751.94 708.112 750.174 708.112C748.408 708.112 747.025 707.69 745.988 706.845C744.952 706 744.414 704.848 744.414 703.389C744.414 702.314 744.721 701.43 745.336 700.739C745.95 700.01 746.795 699.549 747.908 699.28C746.872 699.011 746.104 698.55 745.604 697.898C745.105 697.245 744.836 696.477 744.836 695.555C744.836 694.749 745.028 694.058 745.451 693.405H745.489ZM747.14 705.846C747.908 706.461 748.945 706.768 750.212 706.768C751.48 706.768 752.516 706.461 753.284 705.846C754.052 705.232 754.436 704.387 754.436 703.274C754.436 702.16 754.052 701.315 753.246 700.739C752.44 700.163 751.441 699.894 750.212 699.894C748.984 699.894 747.985 700.163 747.179 700.739C746.372 701.315 745.988 702.16 745.988 703.274C745.988 704.387 746.372 705.232 747.14 705.846ZM747.448 697.974C748.139 698.512 749.06 698.781 750.212 698.781C751.364 698.781 752.286 698.512 752.977 697.974C753.669 697.437 753.976 696.707 753.976 695.709C753.976 694.71 753.63 693.981 752.939 693.443C752.248 692.906 751.326 692.637 750.174 692.637C749.022 692.637 748.139 692.906 747.448 693.443C746.756 693.981 746.411 694.71 746.411 695.709C746.411 696.707 746.756 697.437 747.409 697.974H747.448Z" fill="white"/>
</g>
</g>
<g opacity="0.5">
<g opacity="0.8" filter="url(#filter0_d_2682_15399)">
<path d="M234.793 449.685C234.793 452.258 232.719 454.37 230.146 454.37C227.574 454.37 225.5 452.296 225.5 449.685C225.5 447.074 227.574 445 230.146 445C232.719 445 234.793 447.074 234.793 449.685Z" fill="#1DFEE9"/>
</g>
<g opacity="0.8" filter="url(#filter1_d_2682_15399)">
<path d="M110.793 624.685C110.793 627.258 108.719 629.37 106.146 629.37C103.574 629.37 101.5 627.296 101.5 624.685C101.5 622.074 103.574 620 106.146 620C108.719 620 110.793 622.074 110.793 624.685Z" fill="#1DFEE9"/>
</g>
<g opacity="0.8" filter="url(#filter2_d_2682_15399)">
<path d="M288.793 284.685C288.793 287.258 286.719 289.37 284.146 289.37C281.574 289.37 279.5 287.296 279.5 284.685C279.5 282.074 281.574 280 284.146 280C286.719 280 288.793 282.074 288.793 284.685Z" fill="#1DFEE9"/>
</g>
<g opacity="0.8" filter="url(#filter3_d_2682_15399)">
<path d="M419.793 121.685C419.793 124.258 417.719 126.37 415.146 126.37C412.574 126.37 410.5 124.296 410.5 121.685C410.5 119.074 412.574 117 415.146 117C417.719 117 419.793 119.074 419.793 121.685Z" fill="url(#paint8_linear_2682_15399)"/>
<path d="M419.793 121.685C419.793 124.258 417.719 126.37 415.146 126.37C412.574 126.37 410.5 124.296 410.5 121.685C410.5 119.074 412.574 117 415.146 117C417.719 117 419.793 119.074 419.793 121.685Z" fill="#1DFEE9"/>
</g>
<g opacity="0.8" filter="url(#filter4_d_2682_15399)">
<path d="M617.793 440.685C617.793 443.258 615.719 445.37 613.146 445.37C610.574 445.37 608.5 443.296 608.5 440.685C608.5 438.074 610.574 436 613.146 436C615.719 436 617.793 438.074 617.793 440.685Z" fill="#1DFEE9"/>
</g>
<g opacity="0.8" filter="url(#filter5_d_2682_15399)">
<path d="M755.793 592.685C755.793 595.258 753.719 597.37 751.146 597.37C748.574 597.37 746.5 595.296 746.5 592.685C746.5 590.074 748.574 588 751.146 588C753.719 588 755.793 590.074 755.793 592.685Z" fill="#1DFEE9"/>
</g>
<path opacity="0.8" d="M881.012 471.563C881.012 474.136 878.938 476.248 876.365 476.248C873.792 476.248 871.719 474.174 871.719 471.563C871.719 468.952 873.792 466.878 876.365 466.878C878.938 466.878 881.012 468.952 881.012 471.563Z" fill="url(#paint9_linear_2682_15399)"/>
<g opacity="0.8" filter="url(#filter6_d_2682_15399)">
<path d="M1045.79 503.685C1045.79 506.258 1043.72 508.37 1041.15 508.37C1038.57 508.37 1036.5 506.296 1036.5 503.685C1036.5 501.074 1038.57 499 1041.15 499C1043.72 499 1045.79 501.074 1045.79 503.685Z" fill="#1DFEE9"/>
</g>
<g opacity="0.8" filter="url(#filter7_d_2682_15399)">
<path d="M1223.79 768.685C1223.79 771.258 1221.72 773.37 1219.15 773.37C1216.57 773.37 1214.5 771.296 1214.5 768.685C1214.5 766.074 1216.57 764 1219.15 764C1221.72 764 1223.79 766.074 1223.79 768.685Z" fill="#1DFEE9"/>
</g>
<g opacity="0.8" filter="url(#filter8_d_2682_15399)">
<path d="M1122.15 699.293C1124.71 699.293 1126.79 697.213 1126.79 694.646C1126.79 692.08 1124.71 690 1122.15 690C1119.58 690 1117.5 692.08 1117.5 694.646C1117.5 697.213 1119.58 699.293 1122.15 699.293Z" fill="#1DFEE9"/>
</g>
<g opacity="0.8" filter="url(#filter9_d_2682_15399)">
<path d="M1346.15 620.293C1348.71 620.293 1350.79 618.213 1350.79 615.646C1350.79 613.08 1348.71 611 1346.15 611C1343.58 611 1341.5 613.08 1341.5 615.646C1341.5 618.213 1343.58 620.293 1346.15 620.293Z" fill="#1DFEE9"/>
</g>
<path opacity="0.8" d="M1404.79 443.685C1404.79 446.258 1402.72 448.37 1400.15 448.37C1397.57 448.37 1395.5 446.296 1395.5 443.685C1395.5 441.074 1397.57 439 1400.15 439C1402.72 439 1404.79 441.074 1404.79 443.685Z" fill="url(#paint10_linear_2682_15399)"/>
<g opacity="0.8" filter="url(#filter10_d_2682_15399)">
<path d="M1521.79 264.685C1521.79 267.258 1519.72 269.37 1517.15 269.37C1514.57 269.37 1512.5 267.296 1512.5 264.685C1512.5 262.074 1514.57 260 1517.15 260C1519.72 260 1521.79 262.074 1521.79 264.685Z" fill="#1DFEE9"/>
</g>
<g opacity="0.8" filter="url(#filter11_d_2682_15399)">
<path d="M1690.79 373.685C1690.79 376.258 1688.72 378.37 1686.15 378.37C1683.57 378.37 1681.5 376.296 1681.5 373.685C1681.5 371.074 1683.57 369 1686.15 369C1688.72 369 1690.79 371.074 1690.79 373.685Z" fill="#1DFEE9"/>
</g>
</g>
<defs>
<filter id="filter0_d_2682_15399" x="214.5" y="434" width="33.2891" height="33.3696" filterUnits="userSpaceOnUse" color-interpolation-filters="sRGB">
<feFlood flood-opacity="0" result="BackgroundImageFix"/>
<feColorMatrix in="SourceAlpha" type="matrix" values="0 0 0 0 0 0 0 0 0 0 0 0 0 0 0 0 0 0 127 0" result="hardAlpha"/>
<feOffset dx="1" dy="1"/>
<feGaussianBlur stdDeviation="6"/>
<feComposite in2="hardAlpha" operator="out"/>
<feColorMatrix type="matrix" values="0 0 0 0 0.113725 0 0 0 0 0.996078 0 0 0 0 0.913725 0 0 0 1 0"/>
<feBlend mode="normal" in2="BackgroundImageFix" result="effect1_dropShadow_2682_15399"/>
<feBlend mode="normal" in="SourceGraphic" in2="effect1_dropShadow_2682_15399" result="shape"/>
</filter>
<filter id="filter1_d_2682_15399" x="90.5" y="609" width="33.2891" height="33.3696" filterUnits="userSpaceOnUse" color-interpolation-filters="sRGB">
<feFlood flood-opacity="0" result="BackgroundImageFix"/>
<feColorMatrix in="SourceAlpha" type="matrix" values="0 0 0 0 0 0 0 0 0 0 0 0 0 0 0 0 0 0 127 0" result="hardAlpha"/>
<feOffset dx="1" dy="1"/>
<feGaussianBlur stdDeviation="6"/>
<feComposite in2="hardAlpha" operator="out"/>
<feColorMatrix type="matrix" values="0 0 0 0 0.113725 0 0 0 0 0.996078 0 0 0 0 0.913725 0 0 0 1 0"/>
<feBlend mode="normal" in2="BackgroundImageFix" result="effect1_dropShadow_2682_15399"/>
<feBlend mode="normal" in="SourceGraphic" in2="effect1_dropShadow_2682_15399" result="shape"/>
</filter>
<filter id="filter2_d_2682_15399" x="268.5" y="269" width="33.2891" height="33.3696" filterUnits="userSpaceOnUse" color-interpolation-filters="sRGB">
<feFlood flood-opacity="0" result="BackgroundImageFix"/>
<feColorMatrix in="SourceAlpha" type="matrix" values="0 0 0 0 0 0 0 0 0 0 0 0 0 0 0 0 0 0 127 0" result="hardAlpha"/>
<feOffset dx="1" dy="1"/>
<feGaussianBlur stdDeviation="6"/>
<feComposite in2="hardAlpha" operator="out"/>
<feColorMatrix type="matrix" values="0 0 0 0 0.113725 0 0 0 0 0.996078 0 0 0 0 0.913725 0 0 0 1 0"/>
<feBlend mode="normal" in2="BackgroundImageFix" result="effect1_dropShadow_2682_15399"/>
<feBlend mode="normal" in="SourceGraphic" in2="effect1_dropShadow_2682_15399" result="shape"/>
</filter>
<filter id="filter3_d_2682_15399" x="399.5" y="106" width="33.2891" height="33.3696" filterUnits="userSpaceOnUse" color-interpolation-filters="sRGB">
<feFlood flood-opacity="0" result="BackgroundImageFix"/>
<feColorMatrix in="SourceAlpha" type="matrix" values="0 0 0 0 0 0 0 0 0 0 0 0 0 0 0 0 0 0 127 0" result="hardAlpha"/>
<feOffset dx="1" dy="1"/>
<feGaussianBlur stdDeviation="6"/>
<feComposite in2="hardAlpha" operator="out"/>
<feColorMatrix type="matrix" values="0 0 0 0 0.113725 0 0 0 0 0.996078 0 0 0 0 0.913725 0 0 0 1 0"/>
<feBlend mode="normal" in2="BackgroundImageFix" result="effect1_dropShadow_2682_15399"/>
<feBlend mode="normal" in="SourceGraphic" in2="effect1_dropShadow_2682_15399" result="shape"/>
</filter>
<filter id="filter4_d_2682_15399" x="597.5" y="425" width="33.2891" height="33.3696" filterUnits="userSpaceOnUse" color-interpolation-filters="sRGB">
<feFlood flood-opacity="0" result="BackgroundImageFix"/>
<feColorMatrix in="SourceAlpha" type="matrix" values="0 0 0 0 0 0 0 0 0 0 0 0 0 0 0 0 0 0 127 0" result="hardAlpha"/>
<feOffset dx="1" dy="1"/>
<feGaussianBlur stdDeviation="6"/>
<feComposite in2="hardAlpha" operator="out"/>
<feColorMatrix type="matrix" values="0 0 0 0 0.113725 0 0 0 0 0.996078 0 0 0 0 0.913725 0 0 0 1 0"/>
<feBlend mode="normal" in2="BackgroundImageFix" result="effect1_dropShadow_2682_15399"/>
<feBlend mode="normal" in="SourceGraphic" in2="effect1_dropShadow_2682_15399" result="shape"/>
</filter>
<filter id="filter5_d_2682_15399" x="735.5" y="577" width="33.2891" height="33.3696" filterUnits="userSpaceOnUse" color-interpolation-filters="sRGB">
<feFlood flood-opacity="0" result="BackgroundImageFix"/>
<feColorMatrix in="SourceAlpha" type="matrix" values="0 0 0 0 0 0 0 0 0 0 0 0 0 0 0 0 0 0 127 0" result="hardAlpha"/>
<feOffset dx="1" dy="1"/>
<feGaussianBlur stdDeviation="6"/>
<feComposite in2="hardAlpha" operator="out"/>
<feColorMatrix type="matrix" values="0 0 0 0 0.113725 0 0 0 0 0.996078 0 0 0 0 0.913725 0 0 0 1 0"/>
<feBlend mode="normal" in2="BackgroundImageFix" result="effect1_dropShadow_2682_15399"/>
<feBlend mode="normal" in="SourceGraphic" in2="effect1_dropShadow_2682_15399" result="shape"/>
</filter>
<filter id="filter6_d_2682_15399" x="1025.5" y="488" width="33.2891" height="33.3696" filterUnits="userSpaceOnUse" color-interpolation-filters="sRGB">
<feFlood flood-opacity="0" result="BackgroundImageFix"/>
<feColorMatrix in="SourceAlpha" type="matrix" values="0 0 0 0 0 0 0 0 0 0 0 0 0 0 0 0 0 0 127 0" result="hardAlpha"/>
<feOffset dx="1" dy="1"/>
<feGaussianBlur stdDeviation="6"/>
<feComposite in2="hardAlpha" operator="out"/>
<feColorMatrix type="matrix" values="0 0 0 0 0.113725 0 0 0 0 0.996078 0 0 0 0 0.913725 0 0 0 1 0"/>
<feBlend mode="normal" in2="BackgroundImageFix" result="effect1_dropShadow_2682_15399"/>
<feBlend mode="normal" in="SourceGraphic" in2="effect1_dropShadow_2682_15399" result="shape"/>
</filter>
<filter id="filter7_d_2682_15399" x="1203.5" y="753" width="33.2891" height="33.3696" filterUnits="userSpaceOnUse" color-interpolation-filters="sRGB">
<feFlood flood-opacity="0" result="BackgroundImageFix"/>
<feColorMatrix in="SourceAlpha" type="matrix" values="0 0 0 0 0 0 0 0 0 0 0 0 0 0 0 0 0 0 127 0" result="hardAlpha"/>
<feOffset dx="1" dy="1"/>
<feGaussianBlur stdDeviation="6"/>
<feComposite in2="hardAlpha" operator="out"/>
<feColorMatrix type="matrix" values="0 0 0 0 0.113725 0 0 0 0 0.996078 0 0 0 0 0.913725 0 0 0 1 0"/>
<feBlend mode="normal" in2="BackgroundImageFix" result="effect1_dropShadow_2682_15399"/>
<feBlend mode="normal" in="SourceGraphic" in2="effect1_dropShadow_2682_15399" result="shape"/>
</filter>
<filter id="filter8_d_2682_15399" x="1106.5" y="679" width="33.2891" height="33.293" filterUnits="userSpaceOnUse" color-interpolation-filters="sRGB">
<feFlood flood-opacity="0" result="BackgroundImageFix"/>
<feColorMatrix in="SourceAlpha" type="matrix" values="0 0 0 0 0 0 0 0 0 0 0 0 0 0 0 0 0 0 127 0" result="hardAlpha"/>
<feOffset dx="1" dy="1"/>
<feGaussianBlur stdDeviation="6"/>
<feComposite in2="hardAlpha" operator="out"/>
<feColorMatrix type="matrix" values="0 0 0 0 0.113725 0 0 0 0 0.996078 0 0 0 0 0.913725 0 0 0 1 0"/>
<feBlend mode="normal" in2="BackgroundImageFix" result="effect1_dropShadow_2682_15399"/>
<feBlend mode="normal" in="SourceGraphic" in2="effect1_dropShadow_2682_15399" result="shape"/>
</filter>
<filter id="filter9_d_2682_15399" x="1330.5" y="600" width="33.2891" height="33.293" filterUnits="userSpaceOnUse" color-interpolation-filters="sRGB">
<feFlood flood-opacity="0" result="BackgroundImageFix"/>
<feColorMatrix in="SourceAlpha" type="matrix" values="0 0 0 0 0 0 0 0 0 0 0 0 0 0 0 0 0 0 127 0" result="hardAlpha"/>
<feOffset dx="1" dy="1"/>
<feGaussianBlur stdDeviation="6"/>
<feComposite in2="hardAlpha" operator="out"/>
<feColorMatrix type="matrix" values="0 0 0 0 0.113725 0 0 0 0 0.996078 0 0 0 0 0.913725 0 0 0 1 0"/>
<feBlend mode="normal" in2="BackgroundImageFix" result="effect1_dropShadow_2682_15399"/>
<feBlend mode="normal" in="SourceGraphic" in2="effect1_dropShadow_2682_15399" result="shape"/>
</filter>
<filter id="filter10_d_2682_15399" x="1501.5" y="249" width="33.2891" height="33.3696" filterUnits="userSpaceOnUse" color-interpolation-filters="sRGB">
<feFlood flood-opacity="0" result="BackgroundImageFix"/>
<feColorMatrix in="SourceAlpha" type="matrix" values="0 0 0 0 0 0 0 0 0 0 0 0 0 0 0 0 0 0 127 0" result="hardAlpha"/>
<feOffset dx="1" dy="1"/>
<feGaussianBlur stdDeviation="6"/>
<feComposite in2="hardAlpha" operator="out"/>
<feColorMatrix type="matrix" values="0 0 0 0 0.113725 0 0 0 0 0.996078 0 0 0 0 0.913725 0 0 0 1 0"/>
<feBlend mode="normal" in2="BackgroundImageFix" result="effect1_dropShadow_2682_15399"/>
<feBlend mode="normal" in="SourceGraphic" in2="effect1_dropShadow_2682_15399" result="shape"/>
</filter>
<filter id="filter11_d_2682_15399" x="1670.5" y="358" width="33.2891" height="33.3696" filterUnits="userSpaceOnUse" color-interpolation-filters="sRGB">
<feFlood flood-opacity="0" result="BackgroundImageFix"/>
<feColorMatrix in="SourceAlpha" type="matrix" values="0 0 0 0 0 0 0 0 0 0 0 0 0 0 0 0 0 0 127 0" result="hardAlpha"/>
<feOffset dx="1" dy="1"/>
<feGaussianBlur stdDeviation="6"/>
<feComposite in2="hardAlpha" operator="out"/>
<feColorMatrix type="matrix" values="0 0 0 0 0.113725 0 0 0 0 0.996078 0 0 0 0 0.913725 0 0 0 1 0"/>
<feBlend mode="normal" in2="BackgroundImageFix" result="effect1_dropShadow_2682_15399"/>
<feBlend mode="normal" in="SourceGraphic" in2="effect1_dropShadow_2682_15399" result="shape"/>
</filter>
<linearGradient id="paint0_linear_2682_15399" x1="617.535" y1="55.3344" x2="399.5" y2="55.3344" gradientUnits="userSpaceOnUse">
<stop stop-color="white"/>
<stop offset="1" stop-color="white"/>
</linearGradient>
<linearGradient id="paint1_linear_2682_15399" x1="508.357" y1="-3.44035e-06" x2="464.082" y2="132.317" gradientUnits="userSpaceOnUse">
<stop stop-color="#FFC400"/>
<stop offset="1" stop-color="#FF3300"/>
</linearGradient>
<linearGradient id="paint2_linear_2682_15399" x1="1721.57" y1="181.373" x2="1503.5" y2="181.373" gradientUnits="userSpaceOnUse">
<stop stop-color="white"/>
<stop offset="1" stop-color="white"/>
</linearGradient>
<linearGradient id="paint3_linear_2682_15399" x1="1612.67" y1="126" x2="1656.98" y2="258.354" gradientUnits="userSpaceOnUse">
<stop stop-color="#FFC400"/>
<stop offset="1" stop-color="#FF3300"/>
</linearGradient>
<linearGradient id="paint4_linear_2682_15399" x1="1551.57" y1="680.373" x2="1333.54" y2="680.373" gradientUnits="userSpaceOnUse">
<stop stop-color="white"/>
<stop offset="1" stop-color="white"/>
</linearGradient>
<linearGradient id="paint5_linear_2682_15399" x1="1442.38" y1="735.707" x2="1398.11" y2="603.385" gradientUnits="userSpaceOnUse">
<stop stop-color="#FFC400"/>
<stop offset="1" stop-color="#FF3300"/>
</linearGradient>
<linearGradient id="paint6_linear_2682_15399" x1="550.5" y1="665.373" x2="768.535" y2="665.373" gradientUnits="userSpaceOnUse">
<stop stop-color="white"/>
<stop offset="1" stop-color="white"/>
</linearGradient>
<linearGradient id="paint7_linear_2682_15399" x1="659.357" y1="610" x2="615.054" y2="742.354" gradientUnits="userSpaceOnUse">
<stop stop-color="#FFC400"/>
<stop offset="1" stop-color="#FF3300"/>
</linearGradient>
<linearGradient id="paint8_linear_2682_15399" x1="410.5" y1="121.685" x2="419.793" y2="121.685" gradientUnits="userSpaceOnUse">
<stop offset="0.13" stop-color="#FBFDFD"/>
<stop offset="1" stop-color="white"/>
</linearGradient>
<linearGradient id="paint9_linear_2682_15399" x1="871.68" y1="471.563" x2="881.012" y2="471.563" gradientUnits="userSpaceOnUse">
<stop offset="0.13" stop-color="#FBFDFD"/>
<stop offset="1" stop-color="white"/>
</linearGradient>
<linearGradient id="paint10_linear_2682_15399" x1="1395.46" y1="443.685" x2="1404.79" y2="443.685" gradientUnits="userSpaceOnUse">
<stop offset="0.13" stop-color="#FBFDFD"/>
<stop offset="1" stop-color="white"/>
</linearGradient>
</defs>
</svg>
